<?xml version="1.0" encoding="UTF-8" standalone="no"?>
<!-- Created with Inkscape (http://www.inkscape.org/) -->

<svg
   xmlns:dc="http://purl.org/dc/elements/1.1/"
   xmlns:cc="http://creativecommons.org/ns#"
   xmlns:rdf="http://www.w3.org/1999/02/22-rdf-syntax-ns#"
   xmlns:svg="http://www.w3.org/2000/svg"
   xmlns="http://www.w3.org/2000/svg"
   xmlns:xlink="http://www.w3.org/1999/xlink"
   xmlns:sodipodi="http://sodipodi.sourceforge.net/DTD/sodipodi-0.dtd"
   xmlns:inkscape="http://www.inkscape.org/namespaces/inkscape"
   width="295.27029mm"
   height="281.3212mm"
   viewBox="0 0 295.27029 281.3212"
   version="1.1"
   id="svg3782"
   inkscape:version="0.92.3 (2405546, 2018-03-11)"
   sodipodi:docname="AILogoAether.svg">
  <defs
     id="defs3776">
    <linearGradient
       inkscape:collect="always"
       id="linearGradient1760">
      <stop
         style="stop-color:#8cd0ff;stop-opacity:1;"
         offset="0"
         id="stop1756" />
      <stop
         style="stop-color:#8cd0ff;stop-opacity:0;"
         offset="1"
         id="stop1758" />
    </linearGradient>
    <linearGradient
       inkscape:collect="always"
       id="linearGradient1749">
      <stop
         style="stop-color:#ffea8c;stop-opacity:1;"
         offset="0"
         id="stop1745" />
      <stop
         style="stop-color:#ffea8c;stop-opacity:0;"
         offset="1"
         id="stop1747" />
    </linearGradient>
    <inkscape:path-effect
       effect="bspline"
       id="path-effect1621"
       is_visible="true"
       weight="33.333333"
       steps="2"
       helper_size="0"
       apply_no_weight="true"
       apply_with_weight="true"
       only_selected="false" />
    <inkscape:path-effect
       effect="bspline"
       id="path-effect1609"
       is_visible="true"
       weight="33.333333"
       steps="2"
       helper_size="0"
       apply_no_weight="true"
       apply_with_weight="true"
       only_selected="false" />
    <inkscape:path-effect
       effect="bspline"
       id="path-effect1607"
       is_visible="true"
       weight="33.333333"
       steps="2"
       helper_size="0"
       apply_no_weight="true"
       apply_with_weight="true"
       only_selected="false" />
    <inkscape:path-effect
       only_selected="false"
       apply_with_weight="true"
       apply_no_weight="true"
       helper_size="0"
       steps="2"
       weight="33.333333"
       is_visible="true"
       id="path-effect4787"
       effect="bspline" />
    <inkscape:path-effect
       only_selected="false"
       apply_with_weight="true"
       apply_no_weight="true"
       helper_size="0"
       steps="2"
       weight="33.333333"
       is_visible="true"
       id="path-effect4785"
       effect="bspline" />
    <inkscape:path-effect
       effect="bspline"
       id="path-effect4761"
       is_visible="true"
       weight="33.333333"
       steps="2"
       helper_size="0"
       apply_no_weight="true"
       apply_with_weight="true"
       only_selected="false" />
    <inkscape:path-effect
       effect="bspline"
       id="path-effect4757"
       is_visible="true"
       weight="33.333333"
       steps="2"
       helper_size="0"
       apply_no_weight="true"
       apply_with_weight="true"
       only_selected="false" />
    <inkscape:path-effect
       effect="bspline"
       id="path-effect4755"
       is_visible="true"
       weight="33.333333"
       steps="2"
       helper_size="0"
       apply_no_weight="true"
       apply_with_weight="true"
       only_selected="false" />
    <inkscape:path-effect
       effect="bspline"
       id="path-effect4753"
       is_visible="true"
       weight="33.333333"
       steps="2"
       helper_size="0"
       apply_no_weight="true"
       apply_with_weight="true"
       only_selected="false" />
    <inkscape:path-effect
       effect="spiro"
       id="path-effect4749"
       is_visible="true" />
    <inkscape:path-effect
       only_selected="false"
       apply_with_weight="true"
       apply_no_weight="true"
       helper_size="0"
       steps="2"
       weight="33.333333"
       is_visible="true"
       id="path-effect4785-3"
       effect="bspline" />
    <inkscape:path-effect
       effect="bspline"
       id="path-effect1621-5"
       is_visible="true"
       weight="33.333333"
       steps="2"
       helper_size="0"
       apply_no_weight="true"
       apply_with_weight="true"
       only_selected="false" />
    <inkscape:path-effect
       effect="bspline"
       id="path-effect1621-5-9"
       is_visible="true"
       weight="33.333333"
       steps="2"
       helper_size="0"
       apply_no_weight="true"
       apply_with_weight="true"
       only_selected="false" />
    <inkscape:path-effect
       effect="bspline"
       id="path-effect1621-5-9-2"
       is_visible="true"
       weight="33.333333"
       steps="2"
       helper_size="0"
       apply_no_weight="true"
       apply_with_weight="true"
       only_selected="false" />
    <inkscape:path-effect
       effect="bspline"
       id="path-effect1621-5-7"
       is_visible="true"
       weight="33.333333"
       steps="2"
       helper_size="0"
       apply_no_weight="true"
       apply_with_weight="true"
       only_selected="false" />
    <inkscape:path-effect
       effect="bspline"
       id="path-effect1621-0"
       is_visible="true"
       weight="33.333333"
       steps="2"
       helper_size="0"
       apply_no_weight="true"
       apply_with_weight="true"
       only_selected="false" />
    <radialGradient
       inkscape:collect="always"
       xlink:href="#linearGradient1749"
       id="radialGradient1751"
       cx="198.36285"
       cy="-44.851795"
       fx="198.36285"
       fy="-44.851795"
       r="92.252731"
       gradientTransform="matrix(1,0,0,0.52768954,0.08768209,-12.188575)"
       gradientUnits="userSpaceOnUse" />
    <radialGradient
       inkscape:collect="always"
       xlink:href="#linearGradient1760"
       id="radialGradient1762"
       cx="179.91667"
       cy="209.5"
       fx="179.91667"
       fy="209.5"
       r="10.583333"
       gradientUnits="userSpaceOnUse" />
    <radialGradient
       gradientTransform="translate(40.216685,1.0583297)"
       inkscape:collect="always"
       xlink:href="#linearGradient1760"
       id="radialGradient1762-1"
       cx="179.91667"
       cy="209.5"
       fx="179.91667"
       fy="209.5"
       r="10.583333"
       gradientUnits="userSpaceOnUse" />
    <radialGradient
       inkscape:collect="always"
       xlink:href="#linearGradient1749"
       id="radialGradient1792"
       gradientUnits="userSpaceOnUse"
       gradientTransform="matrix(0.23536193,0,0,0.52766587,151.78636,116.72411)"
       cx="198.36285"
       cy="-44.851795"
       fx="198.36285"
       fy="-44.851795"
       r="92.252731" />
  </defs>
  <sodipodi:namedview
     id="base"
     pagecolor="#ffffff"
     bordercolor="#666666"
     borderopacity="1.0"
     inkscape:pageopacity="0.0"
     inkscape:pageshadow="2"
     inkscape:zoom="0.75"
     inkscape:cx="493.17234"
     inkscape:cy="528.2936"
     inkscape:document-units="mm"
     inkscape:current-layer="g1790"
     showgrid="true"
     inkscape:window-width="1869"
     inkscape:window-height="1025"
     inkscape:window-x="51"
     inkscape:window-y="27"
     inkscape:window-maximized="1"
     inkscape:snap-to-guides="false"
     inkscape:snap-grids="true"
     inkscape:object-nodes="true"
     inkscape:object-paths="false"
     fit-margin-top="0"
     fit-margin-left="0"
     fit-margin-right="0"
     fit-margin-bottom="0">
    <inkscape:grid
       type="xygrid"
       id="grid3784"
       originx="-51.181584"
       originy="-1.2574825" />
  </sodipodi:namedview>
  <metadata
     id="metadata3779">
    <rdf:RDF>
      <cc:Work
         rdf:about="">
        <dc:format>image/svg+xml</dc:format>
        <dc:type
           rdf:resource="http://purl.org/dc/dcmitype/StillImage" />
        <dc:title></dc:title>
      </cc:Work>
    </rdf:RDF>
  </metadata>
  <g
     inkscape:groupmode="layer"
     id="layer1"
     inkscape:label="Glow"
     transform="translate(-51.181583,82.578691)"
     style="display:inline">
    <ellipse
       style="fill:url(#radialGradient1751);fill-opacity:1;stroke:none;stroke-width:0.91656387;stroke-linecap:butt;stroke-linejoin:round;stroke-miterlimit:4;stroke-dasharray:none;stroke-opacity:1"
       id="path942"
       cx="198.45053"
       cy="-35.856407"
       rx="92.252731"
       ry="48.680801"
       transform="matrix(0.99995107,0.00989191,-0.00974696,0.9999525,0,0)" />
  </g>
  <g
     style="display:inline"
     transform="translate(-51.181583,82.578691)"
     inkscape:label="Heart"
     id="g1790"
     inkscape:groupmode="layer">
    <ellipse
       transform="matrix(0.99911641,0.0420285,-0.00229225,0.99999737,0,0)"
       ry="48.678616"
       rx="21.712782"
       cy="93.057327"
       cx="198.47346"
       id="ellipse1788"
       style="fill:url(#radialGradient1792);fill-opacity:1;stroke:none;stroke-width:0.44465289;stroke-linecap:butt;stroke-linejoin:round;stroke-miterlimit:4;stroke-dasharray:none;stroke-opacity:1" />
  </g>
  <g
     inkscape:groupmode="layer"
     id="layer2"
     inkscape:label="Eyes"
     transform="translate(-51.181583,-117.42131)">
    <circle
       style="fill:url(#radialGradient1762);fill-opacity:1;stroke:none;stroke-width:0.55000001;stroke-linecap:butt;stroke-linejoin:round;stroke-miterlimit:4;stroke-dasharray:none;stroke-opacity:1"
       id="path1754"
       cx="179.91667"
       cy="209.5"
       r="10.583333" />
    <circle
       style="fill:url(#radialGradient1762-1);fill-opacity:1;stroke:none;stroke-width:0.55000001;stroke-linecap:butt;stroke-linejoin:round;stroke-miterlimit:4;stroke-dasharray:none;stroke-opacity:1"
       id="path1754-9"
       cx="220.1328"
       cy="210.5584"
       r="10.583333" />
  </g>
  <g
     inkscape:label="AI"
     id="g4771"
     inkscape:groupmode="layer"
     style="display:inline"
     transform="translate(-51.181583,82.578691)">
    <path
       sodipodi:nodetypes="cccccccccccccccccccccccccccccccccccccc"
       inkscape:original-d="m 138.42416,51.961308 c -12.40138,20.67151 -24.80365,41.342083 -37.20687,62.011722 -14.054999,23.9788 -28.110989,47.95666 -42.167916,71.93359 -3.306354,4.13505 -6.613645,8.26916 -9.921875,12.40234 1.654584,7.5e-4 3.308229,7.5e-4 4.960938,0 1.654583,-1.65271 3.308229,-3.30635 4.960937,-4.96094 1.654584,-0.82588 3.308229,-1.6527 4.960937,-2.48047 1.654583,-0.82588 3.308229,-1.65271 4.960938,-2.48046 1.654583,-0.82589 3.308229,-1.65272 4.960937,-2.48047 9.75e-4,-1.65271 9.75e-4,-3.30636 0,-4.96094 4.135053,-7.44047 8.269167,-14.88188 12.402344,-22.32422 2.481406,-3.30636 4.961875,-6.61364 7.441406,-9.92187 0.827757,-0.82776 1.654001,-1.65402 2.480458,-2.48048 1.653631,-0.82693 3.307269,-1.65376 4.960896,-2.48046 6.6155,-1.65271 13.23004,-3.30636 19.84365,-4.96094 0.82776,-1.65271 1.65457,-3.30635 2.48046,-4.96093 1.65457,-1.65271 3.3082,-3.30636 4.96091,-4.96094 1.65457,-0.82589 3.3082,-1.65271 4.96091,-2.48047 -1.65271,7.5e-4 -3.30634,7.5e-4 -4.96091,0 -1.65271,0.82776 -3.30634,1.65458 -4.96091,2.48047 -6.61362,1.65458 -13.22817,3.30823 -19.84365,4.96094 -0.82588,7.5e-4 -1.6527,7.5e-4 -2.48046,0 0.82776,-1.65271 1.65458,-3.30636 2.48046,-4.96094 10.74958,-18.18917 21.49822,-36.379271 32.24594,-54.570313 0.82776,-0.825885 1.65458,-1.652709 2.48047,-2.480469 0.82775,0.82776 1.65458,1.654584 2.48047,2.480469 7.5e-4,15.710572 7.5e-4,31.420213 0,47.128903 7.5e-4,18.19105 7.5e-4,36.38114 0,54.57031 -0.82589,0.82776 -1.65272,1.65459 -2.48047,2.48047 1.65458,7.5e-4 3.30822,7.5e-4 4.96093,0 3.30884,1.65405 6.61614,3.3077 9.92188,4.96094 -0.82624,-2.47974 -1.65281,-4.95941 -2.48047,-7.44141 7.5e-4,-19.84281 7.5e-4,-39.68656 0,-59.53124 7.5e-4,-16.535525 7.5e-4,-33.071983 0,-49.60938 7.5e-4,-4.133176 7.5e-4,-8.267291 0,-12.402343 -0.82589,-0.825885 -1.65271,-1.652709 -2.48047,-2.480469 -1.65271,-0.825885 -3.30635,-1.652709 -4.96094,-2.480469 -1.65271,0.82776 -3.30635,1.654584 -4.96093,2.480469 z"
       inkscape:path-effect="#path-effect4785"
       inkscape:connector-curvature="0"
       id="path4765"
       d="m 133.04994,61.883233 c -7.02824,10.748936 -19.43053,31.4195 -32.65965,53.743717 -13.229132,22.32422 -27.285107,46.30208 -35.966703,60.35799 -8.681596,14.05591 -11.988885,18.19002 -12.815195,20.25702 -0.826309,2.067 0.827336,2.067 2.480513,1.24018 1.653178,-0.82683 3.30682,-2.48047 4.960654,-3.7208 1.653834,-1.24033 3.307478,-2.06715 4.961125,-2.89397 1.653647,-0.82683 3.307297,-1.65365 4.960942,-2.48047 1.653645,-0.82682 3.307294,-1.65365 4.133927,-2.89332 0.826633,-1.23967 0.826633,-2.89332 2.893602,-7.44115 2.066969,-4.54784 6.201085,-11.98925 9.50841,-17.36368 3.307325,-5.37443 5.787789,-8.68172 7.441957,-10.74932 1.654169,-2.0676 2.480417,-2.89386 3.720482,-3.72051 1.240065,-0.82665 2.893706,-1.65348 7.028106,-2.89378 4.1344,-1.24031 10.74895,-2.89395 14.4692,-4.54733 3.72026,-1.65337 4.54708,-3.30701 5.7874,-4.96084 1.24032,-1.65383 2.89396,-3.30748 4.54778,-4.54781 1.65383,-1.24033 3.30746,-2.06715 3.30774,-2.48047 2.8e-4,-0.41332 -1.65335,-0.41332 -3.30727,0 -1.65392,0.41332 -3.30755,1.24014 -7.4415,2.48039 -4.13395,1.24024 -10.74851,2.89389 -14.46905,3.72079 -3.72054,0.82691 -4.54736,0.82691 -4.54792,2.7e-4 -5.7e-4,-0.82663 0.82625,-2.48028 6.614,-12.4022 5.78774,-9.92192 16.53638,-28.11202 22.3242,-37.620627 5.78782,-9.508608 6.61464,-10.33543 7.44194,-10.334965 0.82729,4.65e-4 1.65411,0.827292 2.06706,9.095521 0.41294,8.26823 0.41294,23.977871 0.41294,40.927741 0,16.94987 0,35.13996 -0.41341,44.64796 -0.41342,9.508 -1.24025,10.33483 -0.82636,10.74823 0.41388,0.41341 2.06752,0.41341 4.54822,1.24058 2.4807,0.82718 5.788,2.48083 7.02767,2.06748 1.23967,-0.41335 0.41312,-2.89302 -5.7e-4,-14.05548 -0.41368,-11.16245 -0.41368,-31.0062 -0.41368,-49.1963 0,-18.190105 0,-34.726563 0,-45.061849 0,-10.335287 0,-14.469402 -0.41294,-16.949872 -0.41295,-2.480469 -1.23977,-3.307291 -2.47991,-4.134301 -1.24014,-0.827011 -2.89378,-1.653831 -4.54781,-1.654207 -1.65402,-3.75e-4 -3.30766,0.826447 -10.3359,11.575382 z"
       style="fill:#e6fbff;fill-opacity:1;stroke:#000000;stroke-width:0.41249999;stroke-linecap:butt;stroke-linejoin:miter;stroke-miterlimit:4;stroke-dasharray:none;stroke-opacity:1" />
    <path
       inkscape:connector-curvature="0"
       id="path4769"
       d="m 179.91667,189.41672 c -2.46883,-0.94202 -3.59429,-1.11692 -8.23535,-1.27973 -2.69537,-0.0945 -4.87332,-0.27779 -5.01755,-0.42213 -0.17447,-0.1746 -0.14069,-1.15275 0.10708,-3.10059 0.75373,-5.9255 0.89588,-18.88835 0.79693,-72.67072 -0.0637,-34.648361 -0.18467,-53.343925 -0.34974,-54.074218 -0.7352,-3.252487 -0.90088,-4.218524 -0.74946,-4.369942 0.0918,-0.09178 1.09016,0.100462 2.21862,0.427214 2.55398,0.739524 5.15697,0.740822 8.12888,0.004 2.31065,-0.572832 3.606,-0.664387 3.84851,-0.272008 0.0864,0.139789 -0.18353,1.283905 -0.59983,2.542481 -2.08148,6.292805 -2.38166,10.623493 -2.77205,39.991443 -0.3343,25.14792 -0.17558,78.96753 0.24396,82.72363 0.55706,4.98745 1.33566,7.22675 3.16838,9.11247 1.64738,1.69504 1.35683,2.2066 -0.78838,1.38805 z"
       style="fill:#e6fbff;fill-opacity:1;stroke:#000000;stroke-width:0.41249999;stroke-linecap:butt;stroke-linejoin:round;stroke-miterlimit:4;stroke-dasharray:none;stroke-opacity:1" />
    <path
       sodipodi:nodetypes="cccccccccccccccccccccccccccccccccccccc"
       inkscape:original-d="m 259.20909,52.494749 c 12.40141,20.671513 24.80375,41.342086 37.20704,62.011731 14.05505,23.97882 28.11104,47.95668 42.16797,71.93361 3.30635,4.13505 6.61364,8.26916 9.92187,12.40234 -1.65459,7.5e-4 -3.30823,7.5e-4 -4.96094,0 -1.65458,-1.65271 -3.30823,-3.30635 -4.96093,-4.96094 -1.65459,-0.82588 -3.30823,-1.65271 -4.96095,-2.48047 -1.65458,-0.82588 -3.30822,-1.65271 -4.96093,-2.48046 -1.65458,-0.82589 -3.30823,-1.65272 -4.96094,-2.48047 -7.5e-4,-1.65271 -7.5e-4,-3.30636 0,-4.96094 -4.13505,-7.44047 -8.26917,-14.88188 -12.40234,-22.32422 -2.48141,-3.30636 -4.96187,-6.61364 -7.44141,-9.92188 -0.82775,-0.82775 -1.65401,-1.65402 -2.48047,-2.48047 -1.65364,-0.82694 -3.30729,-1.65377 -4.96093,-2.48046 -6.61553,-1.65272 -13.23011,-3.30636 -19.84376,-4.96094 -0.82776,-1.65271 -1.65458,-3.30635 -2.48047,-4.96093 -1.65458,-1.65271 -3.30822,-3.30636 -4.96094,-4.96094 -1.65458,-0.8259 -3.30822,-1.65272 -4.96093,-2.48049 1.65271,7.5e-4 3.30635,7.5e-4 4.96093,0 1.65272,0.82777 3.30636,1.65459 4.96094,2.48049 6.61365,1.65458 13.22823,3.30823 19.84376,4.96094 0.82588,7.5e-4 1.65271,7.5e-4 2.48047,0 -0.82776,-1.65271 -1.65459,-3.30636 -2.48047,-4.96094 -10.74964,-18.18919 -21.49834,-36.379298 -32.2461,-54.570339 -0.82776,-0.825885 -1.65458,-1.652709 -2.48047,-2.480469 -0.82775,0.82776 -1.65458,1.654584 -2.48047,2.480469 -7.5e-4,15.710574 -7.5e-4,31.420209 0,47.128909 -7.5e-4,18.19106 -7.5e-4,36.38116 0,54.57032 0.82589,0.82777 1.65272,1.65459 2.48047,2.48048 -1.65458,7.5e-4 -3.30822,7.5e-4 -4.96093,0 -3.30884,1.65405 -6.61614,3.3077 -9.92188,4.96093 0.82624,-2.47973 1.65281,-4.9594 2.48047,-7.44141 -7.5e-4,-19.8428 -7.5e-4,-39.68655 0,-59.53126 -7.5e-4,-16.53552 -7.5e-4,-33.071975 0,-49.609375 -7.5e-4,-4.133177 -7.5e-4,-8.267294 0,-12.402347 0.82589,-0.825886 1.65271,-1.652709 2.48047,-2.480469 1.65271,-0.825886 3.30635,-1.652709 4.96094,-2.480469 1.65271,0.82776 3.30635,1.654583 4.96093,2.480469 z"
       inkscape:path-effect="#path-effect4785-3"
       inkscape:connector-curvature="0"
       id="path4765-6"
       d="m 264.58334,62.41667 c 7.02826,10.748931 19.4306,31.419502 32.65978,53.74374 13.22917,22.32424 27.28516,46.3021 35.96676,60.358 8.6816,14.05591 11.98889,18.19002 12.81519,20.25702 0.82631,2.067 -0.82733,2.067 -2.48051,1.24018 -1.65317,-0.82683 -3.30682,-2.48047 -4.96065,-3.7208 -1.65383,-1.24033 -3.30748,-2.06715 -4.96113,-2.89397 -1.65365,-0.82683 -3.30729,-1.65365 -4.96094,-2.48047 -1.65364,-0.82682 -3.30729,-1.65365 -4.13393,-2.89332 -0.82663,-1.23967 -0.82663,-2.89332 -2.8936,-7.44115 -2.06697,-4.54784 -6.20108,-11.98925 -9.50841,-17.36368 -3.30732,-5.37444 -5.78778,-8.68172 -7.44195,-10.74932 -1.65417,-2.0676 -2.48044,-2.89386 -3.72051,-3.72051 -1.24007,-0.82665 -2.89372,-1.65348 -7.02814,-2.89378 -4.13443,-1.2403 -10.74901,-2.89395 -14.46929,-4.54733 -3.72028,-1.65337 -4.5471,-3.30701 -5.78743,-4.96084 -1.24033,-1.65383 -2.89397,-3.30748 -4.54781,-4.54781 -1.65383,-1.24034 -3.30747,-2.06717 -3.30775,-2.48049 -2.8e-4,-0.41332 1.65336,-0.41332 3.30729,0 1.65393,0.41333 3.30757,1.24015 7.44154,2.4804 4.13397,1.24025 10.74856,2.8939 14.46912,3.7208 3.72057,0.82691 4.5474,0.82691 4.54796,2.7e-4 5.6e-4,-0.82663 -0.82626,-2.48028 -6.61404,-12.40221 -5.78777,-9.92193 -16.53647,-28.11204 -22.32431,-37.620646 -5.78784,-9.508605 -6.61466,-10.335427 -7.44196,-10.334962 -0.82729,4.65e-4 -1.65411,0.827292 -2.06706,9.095522 -0.41294,8.268231 -0.41294,23.977866 -0.41294,40.927746 0,16.94988 0,35.13998 0.41341,44.64798 0.41342,9.50799 1.24024,10.33482 0.82636,10.74823 -0.41388,0.41341 -2.06752,0.41341 -4.54822,1.24058 -2.4807,0.82717 -5.788,2.48082 -7.02768,2.06748 -1.23967,-0.41335 -0.41311,-2.89302 5.8e-4,-14.05548 0.41368,-11.16245 0.41368,-31.0062 0.41368,-49.19631 0,-18.19012 0,-34.726575 0,-45.061863 0,-10.335289 0,-14.469406 0.41294,-16.949876 0.41295,-2.480471 1.23977,-3.307292 2.47991,-4.134303 1.24014,-0.82701 2.89378,-1.65383 4.54781,-1.654206 1.65402,-3.75e-4 3.30766,0.826447 10.33593,11.575378 z"
       style="display:inline;fill:#e6fbff;fill-opacity:1;stroke:#000000;stroke-width:0.41249999;stroke-linecap:butt;stroke-linejoin:miter;stroke-miterlimit:4;stroke-dasharray:none;stroke-opacity:1" />
    <path
       inkscape:connector-curvature="0"
       id="path4769-7"
       d="m 217.71658,189.95019 c 2.46883,-0.94203 3.59429,-1.11692 8.23535,-1.27973 2.69537,-0.0946 4.87332,-0.27779 5.01755,-0.42214 0.17447,-0.1746 0.14069,-1.15275 -0.10708,-3.10059 -0.75373,-5.92549 -0.89588,-18.88834 -0.79693,-72.67073 0.0637,-34.648367 0.18467,-53.343933 0.34974,-54.074226 0.7352,-3.252489 0.90088,-4.218526 0.74946,-4.369943 -0.0918,-0.09178 -1.09016,0.100462 -2.21862,0.427214 -2.55398,0.739523 -5.15697,0.740822 -8.12888,0.004 -2.31065,-0.572832 -3.606,-0.664387 -3.84851,-0.272008 -0.0864,0.139789 0.18353,1.283905 0.59983,2.542481 2.08148,6.292809 2.38166,10.623497 2.77205,39.991447 0.3343,25.147925 0.17558,78.967545 -0.24396,82.723655 -0.55706,4.98745 -1.33566,7.22674 -3.16838,9.11247 -1.64738,1.69504 -1.35683,2.2066 0.78838,1.38805 z"
       style="display:inline;fill:#e6fbff;fill-opacity:1;stroke:#000000;stroke-width:0.41249999;stroke-linecap:butt;stroke-linejoin:round;stroke-miterlimit:4;stroke-dasharray:none;stroke-opacity:1" />
  </g>
  <g
     transform="translate(-51.181583,82.578691)"
     style="display:inline"
     inkscape:groupmode="layer"
     id="g1619"
     inkscape:label="Halo">
    <path
       style="fill:#e6fbff;fill-opacity:1;stroke:#000000;stroke-width:0.103125;stroke-linecap:butt;stroke-linejoin:miter;stroke-miterlimit:4;stroke-dasharray:none;stroke-opacity:1"
       d="m 181.86915,-68.630912 c -1.27173,2.731753 -3.81515,8.195178 -6.52093,14.091366 -2.70579,5.896187 -5.57394,12.225132 -7.36513,15.946727 -1.7912,3.721595 -2.50547,4.83589 -2.6569,5.371404 -0.15143,0.535513 0.25972,0.492299 0.64915,0.243523 0.38942,-0.248777 0.75735,-0.703135 1.13613,-1.054738 0.37879,-0.351604 0.76832,-0.600387 1.15786,-0.849173 0.38954,-0.248786 0.77909,-0.497578 1.16862,-0.746362 0.38954,-0.248784 0.77909,-0.497573 0.95222,-0.827399 0.17313,-0.329826 0.12991,-0.740961 0.52498,-1.92571 0.39507,-1.18475 1.22847,-3.142935 1.91033,-4.565613 0.68186,-1.422678 1.21215,-2.309787 1.5694,-2.867082 0.35724,-0.557296 0.54108,-0.784329 0.8278,-1.022263 0.28671,-0.237934 0.67625,-0.48672 1.67178,-0.903138 0.99552,-0.416418 2.59688,-1.000416 3.47865,-1.508716 0.88176,-0.5083 1.04412,-0.94105 1.30929,-1.384655 0.26516,-0.443606 0.63309,-0.897964 1.01187,-1.249566 0.37878,-0.351602 0.76832,-0.600391 0.75758,-0.703162 -0.0107,-0.102771 -0.42187,-0.05956 -0.82228,0.08643 -0.40042,0.145985 -0.78996,0.394776 -1.78537,0.811168 -0.99542,0.416392 -2.59678,1.000392 -3.50021,1.303207 -0.90342,0.302816 -1.10901,0.324418 -1.13075,0.1189 -0.0217,-0.205518 0.14062,-0.638274 1.32035,-3.256409 1.17973,-2.618136 3.37682,-7.421637 4.56737,-9.937012 1.19054,-2.515375 1.37451,-2.742562 1.58022,-2.764063 0.2057,-0.0215 0.43288,0.162467 0.75162,2.207411 0.31873,2.044944 0.72926,5.95083 1.17219,10.165086 0.44294,4.214256 0.91829,8.736872 1.06396,11.111654 0.14568,2.374782 -0.0383,2.601961 0.0754,2.693931 0.11371,0.09197 0.52485,0.04876 1.16325,0.189591 0.63839,0.140835 1.5039,0.465557 1.80132,0.330392 0.29742,-0.135166 0.0271,-0.730091 -0.36744,-3.494607 -0.39456,-2.764516 -0.91312,-7.698279 -1.38846,-12.220894 -0.47535,-4.522615 -0.90748,-8.634081 -1.17757,-11.203746 -0.27008,-2.569664 -0.37811,-3.597538 -0.5456,-4.203464 -0.16749,-0.605927 -0.39467,-0.789895 -0.72462,-0.963108 -0.32994,-0.173214 -0.76269,-0.335572 -1.17395,-0.292443 -0.41125,0.04313 -0.80079,0.291918 -0.99561,0.416341 -0.19481,0.124422 -0.19481,0.124442 -1.46654,2.856195 z"
       id="path1611"
       inkscape:connector-curvature="0"
       inkscape:path-effect="#path-effect1621"
       inkscape:original-d="m 183.14088,-71.362665 c -2.54317,5.46364 -5.08658,10.92707 -7.63027,16.390297 -2.86788,6.329144 -5.73603,12.658088 -8.60444,18.986825 -0.714,1.114501 -1.42827,2.228795 -2.1428,3.342879 0.41141,-0.043 0.82256,-0.0863 1.23346,-0.12964 0.36819,-0.454157 0.73612,-0.908514 1.10379,-1.363081 0.38981,-0.248577 0.77934,-0.497367 1.16863,-0.746367 0.38979,-0.248567 0.77934,-0.497357 1.16861,-0.746354 0.3898,-0.24858 0.77935,-0.497367 1.16863,-0.746357 -0.043,-0.410947 -0.0862,-0.822084 -0.12965,-1.233441 0.83368,-1.957991 1.66708,-3.916179 2.50023,-5.874587 0.53055,-0.886907 1.06085,-1.774011 1.59088,-2.661335 0.18417,-0.22744 0.36802,-0.454467 0.55189,-0.681547 0.38954,-0.24881 0.77908,-0.497597 1.16862,-0.746357 1.60162,-0.583794 3.20298,-1.167791 4.80409,-1.751998 0.16262,-0.432547 0.32498,-0.865297 0.48708,-1.298254 0.36819,-0.454157 0.73612,-0.908514 1.10379,-1.363081 0.3898,-0.24858 0.77934,-0.497367 1.16862,-0.746367 -0.4109,0.0434 -0.82204,0.0866 -1.23344,0.12964 -0.38928,0.248997 -0.77882,0.497787 -1.16861,0.746367 -1.60111,0.584204 -3.20248,1.168201 -4.8041,1.751998 -0.20531,0.0217 -0.41089,0.0434 -0.61672,0.0648 0.16263,-0.432547 0.32499,-0.865304 0.48709,-1.298261 2.19735,-4.803293 4.39444,-9.606796 6.59128,-14.410499 0.18422,-0.22697 0.36819,-0.454157 0.5519,-0.681547 0.22744,0.18418 0.45462,0.368147 0.68154,0.551907 0.41074,3.906109 0.82127,7.811995 1.23158,11.717684 0.47556,4.522823 0.95091,9.045439 1.42604,13.567842 -0.18371,0.22739 -0.36768,0.454567 -0.5519,0.681537 0.4114,-0.043 0.82254,-0.0863 1.23344,-0.12964 0.8659,0.32479 1.73141,0.649507 2.59652,0.974164 -0.27023,-0.594947 -0.54054,-1.189871 -0.81118,-1.785338 -0.51835,-4.933553 -1.03691,-9.867316 -1.55568,-14.801286 -0.43193,-4.111259 -0.86406,-8.222725 -1.2964,-12.334411 -0.10782,-1.027644 -0.21585,-2.055518 -0.3241,-3.083592 -0.22692,-0.18376 -0.4541,-0.367727 -0.68154,-0.551907 -0.43249,-0.16215 -0.86524,-0.32451 -1.29826,-0.487077 -0.38928,0.248997 -0.77882,0.497787 -1.16862,0.746364 z"
       sodipodi:nodetypes="cccccccccccccccccccccccccccccccccccccc" />
    <path
       style="fill:#e6fbff;fill-opacity:1;stroke:#000000;stroke-width:0.103125;stroke-linecap:butt;stroke-linejoin:round;stroke-miterlimit:4;stroke-dasharray:none;stroke-opacity:1"
       d="m 194.65841,-39.071388 c -0.61721,-0.235507 -0.89857,-0.279227 -2.05884,-0.319937 -0.67384,-0.0237 -1.21833,-0.0694 -1.25439,-0.10553 -0.0436,-0.0436 -0.0351,-0.288187 0.0267,-0.775144 0.18844,-1.481374 0.22397,-4.722093 0.19924,-18.167688 -0.0159,-8.662092 -0.0461,-13.335985 -0.0874,-13.518552 -0.1838,-0.813127 -0.22522,-1.054634 -0.18736,-1.092484 0.023,-0.0229 0.27254,0.0251 0.55465,0.106797 0.6385,0.18488 1.28924,0.18521 2.03222,0.001 0.57766,-0.143207 0.9015,-0.166097 0.96213,-0.068 0.0216,0.035 -0.0459,0.32098 -0.14996,0.635617 -0.52037,1.573201 -0.59541,2.655875 -0.69301,9.997863 -0.0836,6.286987 -0.0439,19.741889 0.061,20.680913 0.13926,1.246864 0.33391,1.806691 0.79209,2.278118 0.41185,0.423757 0.33921,0.551647 -0.19709,0.347017 z"
       id="path1613"
       inkscape:connector-curvature="0" />
    <path
       style="display:inline;fill:#e6fbff;fill-opacity:1;stroke:#000000;stroke-width:0.0928125;stroke-linecap:butt;stroke-linejoin:round;stroke-miterlimit:4;stroke-dasharray:none;stroke-opacity:1"
       d="m 164.04188,-31.754067 c -0.59415,0.022 -0.84261,0.0847 -1.81817,0.458957 -0.56655,0.217417 -1.03374,0.370917 -1.07631,0.353697 -0.0515,-0.0208 -0.13042,-0.22641 -0.25041,-0.651587 -0.36481,-1.293521 -1.47499,-3.990806 -6.22376,-15.121163 -3.05926,-7.170551 -4.72793,-11.032017 -4.82634,-11.168757 -0.43821,-0.608997 -0.55746,-0.794507 -0.53939,-0.839187 0.011,-0.0271 0.23459,-0.075 0.49705,-0.106567 0.59397,-0.0714 1.13321,-0.29993 1.68395,-0.713817 0.4282,-0.321777 0.68845,-0.454617 0.77317,-0.394667 0.0301,0.0214 0.0746,0.282127 0.0991,0.579347 0.12216,1.486311 0.44068,2.409645 2.94171,8.526462 2.14163,5.23787 6.90602,16.370687 7.32315,17.111741 0.55385,0.983994 0.91196,1.379334 1.45733,1.608771 0.49022,0.20624 0.47502,0.33773 -0.0413,0.35679 z"
       id="path1613-3"
       inkscape:connector-curvature="0" />
    <path
       style="display:inline;fill:#e6fbff;fill-opacity:1;stroke:#000000;stroke-width:0.08353125;stroke-linecap:butt;stroke-linejoin:miter;stroke-miterlimit:4;stroke-dasharray:none;stroke-opacity:1"
       d="m 140.22917,-44.983216 c 0.50897,2.387084 1.5269,7.161187 2.65076,12.294386 1.12385,5.133199 2.35363,10.625484 3.00908,13.906119 0.65545,3.280634 0.73658,4.349639 0.89967,4.769876 0.1631,0.420237 0.408,0.191867 0.53865,-0.158895 0.13065,-0.350762 0.14719,-0.824038 0.22083,-1.23613 0.0736,-0.412092 0.20435,-0.762924 0.33507,-1.113752 0.13071,-0.350827 0.26143,-0.701661 0.39214,-1.052486 0.13072,-0.350825 0.26143,-0.701658 0.21266,-0.99941 -0.0488,-0.297752 -0.27716,-0.542656 -0.59912,-1.501647 -0.32197,-0.958991 -0.7374,-2.631996 -0.98982,-3.884703 -0.25242,-1.252708 -0.34182,-2.085073 -0.38238,-2.619725 -0.0406,-0.534651 -0.0323,-0.77114 0.0372,-1.064821 0.0695,-0.293681 0.2002,-0.64451 0.64121,-1.399172 0.44101,-0.754663 1.19224,-1.913059 1.51487,-2.671706 0.32262,-0.758646 0.21669,-1.117734 0.17197,-1.53396 -0.0447,-0.416226 -0.0282,-0.889503 0.0454,-1.301594 0.0736,-0.412091 0.20434,-0.762919 0.1473,-0.824172 -0.057,-0.06125 -0.30195,0.167124 -0.48981,0.45675 -0.18786,0.289626 -0.31857,0.640459 -0.75952,1.39505 -0.44095,0.75459 -1.19219,1.913002 -1.629,2.549285 -0.43681,0.636283 -0.55926,0.750476 -0.6735,0.628132 -0.11424,-0.122344 -0.22017,-0.481442 -0.73327,-2.750183 -0.5131,-2.26874 -1.43337,-6.447115 -1.88938,-8.654668 -0.45601,-2.207552 -0.44775,-2.444175 -0.32517,-2.558353 0.12258,-0.114178 0.35923,-0.105911 1.56227,1.061578 1.20304,1.167489 3.37261,3.494073 5.71347,6.004331 2.34086,2.510258 4.85301,5.204197 6.10488,6.669416 1.25187,1.465219 1.24361,1.701857 1.36199,1.705926 0.11839,0.0041 0.36329,-0.224311 0.84492,-0.444401 0.48162,-0.220089 1.19981,-0.431938 1.32632,-0.664357 0.12651,-0.23242 -0.33836,-0.48551 -1.94121,-2.081529 -1.60286,-1.596018 -4.34337,-4.53486 -6.85551,-7.228799 -2.51214,-2.693939 -4.79591,-5.142976 -6.22326,-6.673617 -1.42735,-1.53064 -1.99829,-2.142895 -2.40201,-2.453223 -0.40372,-0.310328 -0.64037,-0.318595 -0.93824,-0.269808 -0.29788,0.04879 -0.65697,0.15471 -0.90198,0.38308 -0.24501,0.22837 -0.37572,0.57919 -0.4411,0.754649 -0.0654,0.175459 -0.0653,0.175449 0.44364,2.562533 z"
       id="path1611-6"
       inkscape:connector-curvature="0"
       inkscape:path-effect="#path-effect1621-5"
       inkscape:original-d="m 139.7202,-47.3703 c 1.0182,4.774113 2.03613,9.548216 3.05379,14.322329 1.23006,5.49228 2.45983,10.984567 3.68934,16.476855 0.0814,1.069019 0.16254,2.138023 0.24339,3.207032 0.24516,-0.228403 0.49006,-0.456777 0.73473,-0.68513 0.0168,-0.473269 0.0333,-0.946546 0.0496,-1.419833 0.13099,-0.350814 0.2617,-0.701649 0.39215,-1.052484 0.13098,-0.35082 0.2617,-0.701652 0.39214,-1.052485 0.13099,-0.350816 0.26171,-0.701649 0.39215,-1.052483 -0.2281,-0.244895 -0.45647,-0.489806 -0.68513,-0.734709 -0.41516,-1.673002 -0.83058,-3.34601 -1.2463,-5.019019 -0.0891,-0.83237 -0.17852,-1.664733 -0.26819,-2.49711 0.008,-0.236907 0.0165,-0.473387 0.0248,-0.709914 0.1307,-0.35084 0.26142,-0.701667 0.39214,-1.052474 0.75151,-1.158384 1.50273,-2.316788 2.2537,-3.475192 -0.10548,-0.359137 -0.21158,-0.718174 -0.31779,-1.077274 0.0168,-0.473267 0.0333,-0.946544 0.0495,-1.419831 0.13098,-0.350817 0.26169,-0.701647 0.39215,-1.052494 -0.24465,0.228387 -0.48957,0.456747 -0.73472,0.685137 -0.13044,0.350837 -0.26117,0.701664 -0.39213,1.052474 -0.75097,1.158411 -1.50221,2.316825 -2.25371,3.475209 -0.12221,0.11416 -0.24464,0.22838 -0.36735,0.342567 -0.10562,-0.359087 -0.21158,-0.718174 -0.31776,-1.077274 -0.92001,-4.178366 -1.84028,-8.356742 -2.76082,-12.535128 0.009,-0.236637 0.0168,-0.473277 0.0248,-0.709917 0.2369,0.008 0.47354,0.0165 0.70992,0.0248 2.16981,2.326618 4.33939,4.653196 6.50872,6.979751 2.51238,2.693965 5.02452,5.38791 7.53643,8.081805 -0.008,0.23665 -0.0163,0.473287 -0.0248,0.709917 0.24514,-0.22839 0.49005,-0.456767 0.73471,-0.685127 0.71846,-0.21199 1.43665,-0.423847 2.15455,-0.635537 -0.46483,-0.253137 -0.92971,-0.506217 -1.39505,-0.759504 -2.74029,-2.938795 -5.48079,-5.877647 -8.22154,-8.816532 -2.28353,-2.448995 -4.56731,-4.898023 -6.8513,-7.347098 -0.5707,-0.612217 -1.14163,-1.224484 -1.71283,-1.836768 -0.23637,-0.008 -0.47301,-0.0165 -0.70991,-0.0248 -0.35883,0.105917 -0.71792,0.211857 -1.07728,0.317767 -0.13044,0.350837 -0.26115,0.701657 -0.39214,1.052484 z"
       sodipodi:nodetypes="cccccccccccccccccccccccccccccccccccccc" />
    <path
       style="display:inline;fill:#e6fbff;fill-opacity:1;stroke:#000000;stroke-width:0.05480486;stroke-linecap:butt;stroke-linejoin:round;stroke-miterlimit:4;stroke-dasharray:none;stroke-opacity:1"
       d="m 145.52093,-13.233369 c -0.24337,0.253024 -0.32319,0.381577 -0.58403,0.940729 -0.15147,0.324749 -0.28695,0.581572 -0.31209,0.591722 -0.0304,0.01235 -0.14828,-0.04265 -0.37365,-0.17404 -0.68554,-0.399812 -2.2635,-1.090117 -8.84615,-3.86997 -4.24074,-1.790913 -6.53346,-2.74665 -6.63135,-2.764364 -0.43594,-0.07893 -0.56269,-0.108818 -0.57334,-0.135204 -0.006,-0.01604 0.0689,-0.128102 0.16742,-0.249153 0.22302,-0.273957 0.35831,-0.592227 0.42248,-0.993939 0.0499,-0.312323 0.10595,-0.475498 0.16652,-0.484786 0.0216,-0.0033 0.14741,0.08925 0.27974,0.205428 0.66156,0.581225 1.1756,0.842769 4.747,2.415069 3.05819,1.346387 9.64849,4.120875 10.12964,4.264528 0.63888,0.190785 0.95315,0.211835 1.27892,0.08558 0.29286,-0.113408 0.34029,-0.05147 0.1288,0.168515 z"
       id="path1613-3-2"
       inkscape:connector-curvature="0" />
    <path
       style="display:inline;fill:#e6fbff;fill-opacity:1;stroke:#000000;stroke-width:0.04932436;stroke-linecap:butt;stroke-linejoin:miter;stroke-miterlimit:4;stroke-dasharray:none;stroke-opacity:1"
       d="m 129.64584,-10.587423 c 1.05467,0.9822461 3.16399,2.9466996 5.44617,5.0489844 2.28218,2.1022847 4.73723,4.3423899 6.16539,5.70723399 1.42816,1.36484401 1.82947,1.85444601 2.05069,2.00248101 0.22121,0.148035 0.26232,-0.045382 0.20672,-0.2592942 -0.0556,-0.2139118 -0.20792,-0.4484368 -0.31187,-0.6727058 -0.10396,-0.224269 -0.15956,-0.43823451 -0.21515,-0.652203 -0.0556,-0.21396849 -0.11119,-0.42793076 -0.16678,-0.64189925 -0.0556,-0.21396848 -0.11119,-0.42792653 -0.23564,-0.55543276 -0.12444,-0.12750623 -0.31785,-0.16861719 -0.79839,-0.52343299 -0.48053,-0.3548159 -1.24811,-1.0233361 -1.79449,-1.5437734 -0.54637,-0.5204373 -0.87153,-0.8927826 -1.07223,-1.1376564 -0.20071,-0.2448738 -0.27681,-0.3620535 -0.34267,-0.5276421 -0.0659,-0.1655886 -0.12145,-0.3795542 -0.16374,-0.8939472 -0.0423,-0.514393 -0.0712,-1.3291496 -0.17214,-1.8053799 -0.1009,-0.4762304 -0.27375,-0.614039 -0.43635,-0.8002189 -0.1626,-0.1861799 -0.31491,-0.4207057 -0.41886,-0.6449699 -0.10396,-0.2242643 -0.15955,-0.4382232 -0.20789,-0.4485335 -0.0483,-0.01031 -0.0894,0.1830974 -0.0822,0.3868164 0.007,0.203719 0.0628,0.4176932 0.1051,0.9320314 0.0423,0.5143381 0.0712,1.3290947 0.0755,1.784807 0.004,0.4557124 -0.0163,0.552422 -0.11306,0.5319335 -0.0967,-0.020488 -0.26955,-0.1583026 -1.28614,-1.0819103 -1.0166,-0.9236077 -2.8769,-2.6329844 -3.84515,-3.5463245 -0.96825,-0.9133406 -1.04441,-1.0305996 -1.02379,-1.1273476 0.0206,-0.09675 0.13789,-0.172897 1.11522,-0.01564 0.97733,0.157257 2.81475,0.547811 4.79723,0.969195 1.98247,0.4213836 4.11001,0.8735989 5.2118,1.1583277 1.10179,0.2847289 1.17794,0.4019965 1.23658,0.3638696 0.0587,-0.038127 0.0998,-0.2315372 0.25817,-0.5011177 0.15842,-0.2695804 0.43406,-0.6153033 0.41653,-0.7705771 -0.0175,-0.1552735 -0.3281,-0.1202539 -1.64396,-0.3493785 -1.31586,-0.229125 -3.6368,-0.72245 -5.76434,-1.17467 -2.12755,-0.452219 -4.06167,-0.863328 -5.2705,-1.120271 -1.20883,-0.256944 -1.69235,-0.359718 -1.99274,-0.373084 -0.30039,-0.01337 -0.41765,0.06278 -0.54521,0.187268 -0.12755,0.124485 -0.26537,0.297344 -0.30654,0.490784 -0.0412,0.19344 0.0144,0.407411 0.0422,0.514418 0.0278,0.107008 0.0279,0.107013 1.08256,1.089259 z"
       id="path1611-6-1"
       inkscape:connector-curvature="0"
       inkscape:path-effect="#path-effect1621-5-9"
       inkscape:original-d="m 128.59116,-11.569669 c 2.10946,1.9643787 4.21877,3.9288355 6.32797,5.8933893 2.45517,2.2400098 4.91021,4.4801166 7.3651,6.7202933 0.40145,0.4895267 0.80276,0.9791283 1.20394,1.46882 0.0412,-0.193508 0.0823,-0.3869276 0.12333,-0.5802417 -0.15217,-0.234608 -0.30447,-0.4691367 -0.45691,-0.7035647 -0.0555,-0.2140486 -0.11106,-0.42802362 -0.16679,-0.64189659 -0.0555,-0.2140537 -0.11105,-0.4280267 -0.16678,-0.64191037 -0.0555,-0.214043 -0.11105,-0.42801267 -0.16679,-0.64189667 -0.19328,-0.0412 -0.38669,-0.08231 -0.58023,-0.123333 -0.76745,-0.66861667 -1.53502,-1.33714707 -2.30274,-2.00556377 -0.32502,-0.3724367 -0.65018,-0.7447797 -0.97547,-1.1170334 -0.0762,-0.117413 -0.15234,-0.234568 -0.22846,-0.3517767 -0.0556,-0.213968 -0.1112,-0.4279327 -0.16679,-0.6419017 -0.0288,-0.8148247 -0.0578,-1.6295801 -0.0869,-2.4442495 -0.17266,-0.137994 -0.34558,-0.275719 -0.51858,-0.413442 -0.15216,-0.2346037 -0.30448,-0.4691217 -0.45691,-0.7035554 -0.0555,-0.21404 -0.11106,-0.428008 -0.16679,-0.6418967 -0.041,0.193324 -0.0821,0.3867337 -0.12333,0.5802317 0.0557,0.2138887 0.11132,0.4278567 0.16678,0.6418907 0.0291,0.8146744 0.0581,1.6294298 0.0869,2.4442695 -0.0205,0.0966 -0.041,0.193324 -0.0617,0.2901137 -0.17271,-0.1379287 -0.34558,-0.2757187 -0.51857,-0.4134567 -1.86018,-1.7094801 -3.72049,-3.4188489 -5.58094,-5.1281593 -0.076,-0.11736 -0.15217,-0.234608 -0.22846,-0.351783 0.11739,-0.07624 0.23466,-0.152379 0.35179,-0.228444 1.83755,0.390484 3.67497,0.781036 5.51225,1.171659 2.12767,0.4521567 4.25521,0.9043634 6.38262,1.3566471 0.0763,0.117168 0.15244,0.234443 0.22845,0.351797 0.0412,-0.193504 0.0823,-0.386917 0.12334,-0.5802407 0.27571,-0.345873 0.55135,-0.6915967 0.8269,-1.0371394 -0.31058,0.035 -0.62115,0.07001 -0.93202,0.1050947 -2.32083,-0.4933817 -4.64177,-0.9867137 -6.96286,-1.4799807 -1.934,-0.411174 -3.86812,-0.822271 -5.80237,-1.233329 -0.48341,-0.102834 -0.96693,-0.205614 -1.4506,-0.308329 -0.11712,0.07609 -0.23438,0.15223 -0.35178,0.228455 -0.13769,0.172759 -0.2755,0.345627 -0.41346,0.518567 0.0557,0.213874 0.11133,0.427837 0.16679,0.641891 z"
       sodipodi:nodetypes="cccccccccccccccccccccccccccccccccccccc" />
    <path
       style="display:inline;fill:#e6fbff;fill-opacity:1;stroke:#000000;stroke-width:0.103125;stroke-linecap:butt;stroke-linejoin:miter;stroke-miterlimit:4;stroke-dasharray:none;stroke-opacity:1"
       d="m 209.71419,-68.630918 c 1.27173,2.731757 3.81515,8.195183 6.52094,14.09137 2.70578,5.896187 5.57393,12.225131 7.36513,15.946728 1.7912,3.721598 2.50546,4.83589 2.65689,5.371404 0.15143,0.535514 -0.25971,0.492301 -0.64914,0.243524 -0.38943,-0.248778 -0.75736,-0.703138 -1.13614,-1.05474 -0.37878,-0.351602 -0.76832,-0.600387 -1.15786,-0.849173 -0.38954,-0.248786 -0.77908,-0.497574 -1.16862,-0.74636 -0.38954,-0.248785 -0.77908,-0.497571 -0.95221,-0.827398 -0.17313,-0.329827 -0.12992,-0.740973 -0.52499,-1.925715 -0.39507,-1.184742 -1.22847,-3.142928 -1.91033,-4.565607 -0.68186,-1.42268 -1.21215,-2.309784 -1.5694,-2.867085 -0.35725,-0.557301 -0.54108,-0.784323 -0.8278,-1.022259 -0.28671,-0.237937 -0.67624,-0.486718 -1.67177,-0.903139 -0.99553,-0.41642 -2.59689,-1.000418 -3.47866,-1.508718 -0.88176,-0.5083 -1.04412,-0.94105 -1.30929,-1.384655 -0.26516,-0.443606 -0.63309,-0.897964 -1.01187,-1.249566 -0.37878,-0.351602 -0.76832,-0.600391 -0.75758,-0.70316 0.0107,-0.10277 0.42187,-0.05955 0.82228,0.08643 0.40042,0.145983 0.78996,0.394769 1.78537,0.811158 0.99542,0.416389 2.59679,1.000389 3.50021,1.303204 0.90342,0.302815 1.10901,0.324417 1.13076,0.118904 0.0217,-0.205512 -0.14063,-0.638271 -1.32035,-3.256407 -1.17973,-2.618135 -3.37683,-7.421635 -4.56738,-9.937013 -1.19055,-2.515377 -1.37451,-2.742558 -1.58022,-2.764059 -0.2057,-0.0215 -0.43288,0.162467 -0.75162,2.207411 -0.31873,2.044944 -0.72926,5.95083 -1.17219,10.165086 -0.44294,4.214256 -0.91829,8.736872 -1.06396,11.111654 -0.14568,2.374782 0.0383,2.601961 -0.0754,2.693931 -0.11371,0.09197 -0.52485,0.04876 -1.16325,0.189591 -0.63839,0.140835 -1.5039,0.465559 -1.80132,0.330394 -0.29741,-0.135165 -0.0271,-0.730091 0.36744,-3.494608 0.39456,-2.764517 0.91312,-7.69828 1.38846,-12.220895 0.47535,-4.522615 0.90748,-8.634081 1.17757,-11.203751 0.27008,-2.569669 0.37811,-3.597533 0.5456,-4.203461 0.16749,-0.605929 0.39467,-0.789895 0.72462,-0.963107 0.32994,-0.173213 0.76269,-0.335571 1.17395,-0.292444 0.41125,0.04313 0.80079,0.291913 0.9956,0.416334 0.19482,0.124421 0.19482,0.124441 1.46655,2.856198 z"
       id="path1611-9"
       inkscape:connector-curvature="0"
       inkscape:path-effect="#path-effect1621-0"
       inkscape:original-d="m 208.44246,-71.362675 c 2.54317,5.46365 5.08658,10.92708 7.63027,16.390297 2.86788,6.329154 5.73603,12.658098 8.60445,18.986835 0.714,1.114501 1.42826,2.228795 2.14279,3.342879 -0.41141,-0.043 -0.82255,-0.0863 -1.23346,-0.12964 -0.36819,-0.454157 -0.73612,-0.908514 -1.10379,-1.363091 -0.3898,-0.248567 -0.77934,-0.497357 -1.16863,-0.746357 -0.38979,-0.248577 -0.77933,-0.497367 -1.16861,-0.746354 -0.3898,-0.24858 -0.77934,-0.497367 -1.16862,-0.746357 0.043,-0.410947 0.0862,-0.822094 0.12964,-1.233441 -0.83367,-1.957991 -1.66707,-3.916179 -2.50023,-5.874587 -0.53055,-0.886907 -1.06084,-1.774011 -1.59088,-2.661335 -0.18417,-0.22745 -0.36801,-0.454467 -0.55189,-0.681547 -0.38954,-0.24881 -0.77907,-0.497597 -1.16862,-0.746357 -1.60162,-0.583794 -3.20298,-1.167791 -4.80409,-1.751998 -0.16262,-0.432547 -0.32498,-0.865297 -0.48708,-1.298254 -0.36819,-0.454157 -0.73612,-0.908514 -1.10379,-1.363081 -0.3898,-0.24858 -0.77934,-0.497367 -1.16862,-0.746367 0.4109,0.0434 0.82204,0.0866 1.23344,0.12965 0.38928,0.248987 0.77882,0.497777 1.16861,0.746347 1.60111,0.584214 3.20248,1.168211 4.8041,1.751998 0.20531,0.0217 0.41089,0.0434 0.61672,0.0648 -0.16262,-0.432537 -0.32499,-0.865294 -0.48708,-1.298251 -2.19736,-4.803293 -4.39445,-9.606796 -6.59129,-14.410499 -0.18422,-0.22698 -0.36819,-0.454157 -0.5519,-0.681547 -0.22744,0.18418 -0.45462,0.368147 -0.68154,0.551907 -0.41074,3.906109 -0.82127,7.811995 -1.23158,11.717684 -0.47556,4.522823 -0.95091,9.045439 -1.42604,13.567842 0.18371,0.22739 0.36768,0.454567 0.5519,0.681537 -0.4114,-0.043 -0.82254,-0.0863 -1.23344,-0.12964 -0.8659,0.32478 -1.73141,0.649507 -2.59651,0.974164 0.27022,-0.594947 0.54053,-1.189871 0.81117,-1.785338 0.51835,-4.933553 1.03691,-9.867316 1.55568,-14.801286 0.43193,-4.111259 0.86406,-8.222725 1.2964,-12.334411 0.10782,-1.027654 0.21585,-2.055518 0.3241,-3.083602 0.22692,-0.18375 0.4541,-0.367717 0.68154,-0.551897 0.43249,-0.16215 0.86524,-0.32451 1.29826,-0.487077 0.38928,0.248987 0.77882,0.497777 1.16862,0.746354 z"
       sodipodi:nodetypes="cccccccccccccccccccccccccccccccccccccc" />
    <path
       style="display:inline;fill:#e6fbff;fill-opacity:1;stroke:#000000;stroke-width:0.103125;stroke-linecap:butt;stroke-linejoin:round;stroke-miterlimit:4;stroke-dasharray:none;stroke-opacity:1"
       d="m 196.92494,-39.071388 c 0.6172,-0.235507 0.89857,-0.279227 2.05883,-0.319937 0.67385,-0.0236 1.21833,-0.0695 1.25439,-0.10553 0.0436,-0.0436 0.0352,-0.288187 -0.0267,-0.775154 -0.18843,-1.481374 -0.22397,-4.722083 -0.19923,-18.167678 0.0159,-8.662092 0.0462,-13.335985 0.0874,-13.518562 0.1838,-0.813117 0.22522,-1.054624 0.18737,-1.092484 -0.023,-0.023 -0.27254,0.0251 -0.55466,0.106807 -0.63849,0.18488 -1.28924,0.1852 -2.03222,0.001 -0.57766,-0.143207 -0.9015,-0.166097 -0.96212,-0.068 -0.0216,0.035 0.0459,0.32098 0.14995,0.635617 0.52037,1.573201 0.59542,2.655875 0.69302,9.997863 0.0836,6.286977 0.0439,19.741889 -0.061,20.680913 -0.13927,1.246864 -0.33392,1.806691 -0.7921,2.278118 -0.41184,0.423757 -0.33921,0.551647 0.1971,0.347007 z"
       id="path1613-36"
       inkscape:connector-curvature="0" />
    <path
       style="display:inline;fill:#e6fbff;fill-opacity:1;stroke:#000000;stroke-width:0.0928125;stroke-linecap:butt;stroke-linejoin:round;stroke-miterlimit:4;stroke-dasharray:none;stroke-opacity:1"
       d="m 227.54146,-31.754067 c 0.59415,0.022 0.84262,0.0846 1.81817,0.458957 0.56655,0.217407 1.03374,0.370907 1.07631,0.353687 0.0515,-0.0208 0.13042,-0.2264 0.25041,-0.651587 0.36481,-1.293521 1.475,-3.990796 6.22377,-15.121153 3.05925,-7.170551 4.72793,-11.032017 4.82634,-11.168757 0.43821,-0.608997 0.55745,-0.794507 0.53939,-0.839187 -0.011,-0.0271 -0.23459,-0.075 -0.49706,-0.106567 -0.59397,-0.0714 -1.1332,-0.29994 -1.68395,-0.713817 -0.4282,-0.321777 -0.68844,-0.454617 -0.77317,-0.394667 -0.0302,0.0214 -0.0746,0.282127 -0.0991,0.579337 -0.12215,1.486321 -0.44068,2.409655 -2.94171,8.526472 -2.14162,5.23786 -6.90602,16.370687 -7.32315,17.111741 -0.55384,0.983994 -0.91196,1.379334 -1.45733,1.608771 -0.49021,0.20624 -0.47501,0.33773 0.0413,0.35679 z"
       id="path1613-3-0"
       inkscape:connector-curvature="0" />
    <path
       style="display:inline;fill:#e6fbff;fill-opacity:1;stroke:#000000;stroke-width:0.08353125;stroke-linecap:butt;stroke-linejoin:miter;stroke-miterlimit:4;stroke-dasharray:none;stroke-opacity:1"
       d="m 251.35417,-44.983216 c -0.50897,2.387084 -1.5269,7.161187 -2.65076,12.294386 -1.12385,5.133199 -2.35363,10.625482 -3.00908,13.906118 -0.65545,3.280635 -0.73658,4.349639 -0.89967,4.769879 -0.16309,0.420239 -0.408,0.191862 -0.53865,-0.158899 -0.13064,-0.35076 -0.14718,-0.824036 -0.22082,-1.236129 -0.0736,-0.412093 -0.20435,-0.762925 -0.33507,-1.113753 -0.13071,-0.350827 -0.26143,-0.701661 -0.39214,-1.052486 -0.13072,-0.350825 -0.26143,-0.701658 -0.21266,-0.99941 0.0488,-0.297752 0.27716,-0.542656 0.59912,-1.501647 0.32197,-0.958991 0.7374,-2.631996 0.98982,-3.884703 0.25242,-1.252707 0.34182,-2.08508 0.38238,-2.619727 0.0406,-0.534647 0.0323,-0.771136 -0.0372,-1.064822 -0.0695,-0.293687 -0.20021,-0.644502 -0.64122,-1.399168 -0.44101,-0.754666 -1.19223,-1.913057 -1.51486,-2.671709 -0.32262,-0.758651 -0.21669,-1.11773 -0.17198,-1.533956 0.0447,-0.416225 0.0282,-0.889501 -0.0455,-1.301598 -0.0736,-0.412096 -0.20435,-0.762915 -0.14731,-0.824171 0.057,-0.06126 0.30194,0.167122 0.48981,0.456751 0.18786,0.289628 0.31857,0.640461 0.75952,1.395052 0.44095,0.75459 1.19219,1.912995 1.629,2.549281 0.43681,0.636287 0.55926,0.750476 0.6735,0.628129 0.11425,-0.122346 0.22017,-0.481435 0.73327,-2.750176 0.5131,-2.26874 1.43337,-6.447125 1.88938,-8.654672 0.45601,-2.207548 0.44775,-2.444171 0.32517,-2.558349 -0.12258,-0.114178 -0.35923,-0.105911 -1.56227,1.061575 -1.20304,1.167485 -3.37262,3.494073 -5.71347,6.004331 -2.34086,2.510258 -4.85301,5.204198 -6.10488,6.669418 -1.25187,1.46522 -1.24361,1.701858 -1.36199,1.705925 -0.11838,0.0041 -0.36329,-0.224311 -0.84492,-0.4444 -0.48162,-0.220089 -1.19981,-0.431937 -1.32632,-0.664356 -0.12651,-0.23242 0.33836,-0.48551 1.94122,-2.081531 1.60285,-1.596022 4.34336,-4.534858 6.8555,-7.228797 2.51214,-2.693939 4.79591,-5.142976 6.22326,-6.67362 1.42735,-1.530644 1.99829,-2.142895 2.40201,-2.453222 0.40372,-0.310326 0.64037,-0.318593 0.93824,-0.269806 0.29788,0.04879 0.65697,0.15471 0.90198,0.38308 0.24501,0.22837 0.37573,0.57919 0.4411,0.754644 0.0654,0.175454 0.0654,0.175454 -0.44355,2.562538 z"
       id="path1611-6-6"
       inkscape:connector-curvature="0"
       inkscape:path-effect="#path-effect1621-5-7"
       inkscape:original-d="m 251.86314,-47.3703 c -1.0182,4.774113 -2.03613,9.548216 -3.05379,14.322329 -1.23006,5.49228 -2.45983,10.984565 -3.68934,16.476853 -0.0814,1.069021 -0.16253,2.138025 -0.24339,3.207034 -0.24515,-0.228403 -0.49006,-0.456777 -0.73472,-0.68513 -0.0168,-0.473269 -0.0333,-0.946546 -0.0496,-1.419833 -0.13099,-0.350816 -0.2617,-0.701651 -0.39215,-1.052486 -0.13098,-0.35082 -0.2617,-0.701652 -0.39214,-1.052486 -0.13099,-0.350815 -0.26171,-0.701648 -0.39215,-1.052482 0.2281,-0.244895 0.45647,-0.489806 0.68513,-0.734709 0.41516,-1.673002 0.83058,-3.34601 1.2463,-5.019019 0.0891,-0.83237 0.17851,-1.664741 0.26819,-2.497108 -0.008,-0.236907 -0.0165,-0.473387 -0.0248,-0.709914 -0.13071,-0.35085 -0.26142,-0.701667 -0.39215,-1.052474 -0.7515,-1.158394 -1.50272,-2.316788 -2.25369,-3.475192 0.10548,-0.359147 0.21158,-0.718174 0.31779,-1.077274 -0.0168,-0.473267 -0.0333,-0.946544 -0.0496,-1.419841 -0.13098,-0.350817 -0.26169,-0.701637 -0.39215,-1.052484 0.24465,0.228377 0.48957,0.456737 0.73472,0.685137 0.13044,0.350837 0.26117,0.701664 0.39213,1.052474 0.75097,1.158411 1.50221,2.316815 2.25371,3.475209 0.12221,0.11416 0.24464,0.22837 0.36735,0.342567 0.10562,-0.359097 0.21158,-0.718174 0.31776,-1.077274 0.92001,-4.178366 1.84028,-8.356752 2.76082,-12.535138 -0.009,-0.236627 -0.0168,-0.473267 -0.0248,-0.709907 -0.2369,0.008 -0.47354,0.0165 -0.70992,0.0248 -2.16981,2.326608 -4.33939,4.653196 -6.50872,6.979741 -2.51238,2.693975 -5.02452,5.38792 -7.53643,8.081815 0.008,0.23665 0.0163,0.473287 0.0248,0.709907 -0.24514,-0.22838 -0.49005,-0.456757 -0.73471,-0.685117 -0.71846,-0.212 -1.43665,-0.423847 -2.15455,-0.635537 0.46483,-0.253137 0.92971,-0.506217 1.39505,-0.759504 2.74029,-2.938805 5.48079,-5.877647 8.22154,-8.816532 2.28353,-2.448995 4.56731,-4.898023 6.8513,-7.347098 0.5707,-0.612227 1.14163,-1.224484 1.71282,-1.836768 0.23638,-0.008 0.47302,-0.0165 0.70992,-0.0248 0.35883,0.105917 0.71792,0.211857 1.07728,0.317767 0.13044,0.350837 0.26115,0.701657 0.39214,1.052474 z"
       sodipodi:nodetypes="cccccccccccccccccccccccccccccccccccccc" />
    <path
       style="display:inline;fill:#e6fbff;fill-opacity:1;stroke:#000000;stroke-width:0.05480486;stroke-linecap:butt;stroke-linejoin:round;stroke-miterlimit:4;stroke-dasharray:none;stroke-opacity:1"
       d="m 246.06241,-13.233369 c 0.24338,0.253024 0.32319,0.381577 0.58403,0.940729 0.15147,0.324749 0.28695,0.581572 0.31209,0.591722 0.0304,0.01235 0.14828,-0.04265 0.37365,-0.17404 0.68554,-0.399812 2.2635,-1.090117 8.84615,-3.869972 4.24074,-1.790913 6.53346,-2.74665 6.63135,-2.764364 0.43594,-0.07893 0.56269,-0.108818 0.57334,-0.135204 0.006,-0.01604 -0.0689,-0.128102 -0.16742,-0.249152 -0.22302,-0.273958 -0.35831,-0.592228 -0.42248,-0.99394 -0.0499,-0.312323 -0.10594,-0.475498 -0.16652,-0.484786 -0.0215,-0.0034 -0.1474,0.08925 -0.27974,0.205427 -0.66156,0.581225 -1.1756,0.84277 -4.74699,2.41507 -3.0582,1.346387 -9.64849,4.120877 -10.12965,4.26453 -0.63888,0.190785 -0.95315,0.211835 -1.27892,0.08558 -0.29286,-0.113408 -0.34028,-0.05147 -0.12879,0.168515 z"
       id="path1613-3-2-2"
       inkscape:connector-curvature="0" />
    <path
       style="display:inline;fill:#e6fbff;fill-opacity:1;stroke:#000000;stroke-width:0.04932436;stroke-linecap:butt;stroke-linejoin:miter;stroke-miterlimit:4;stroke-dasharray:none;stroke-opacity:1"
       d="m 261.93751,-10.587423 c -1.05467,0.9822461 -3.16399,2.9467046 -5.44618,5.0489885 -2.28218,2.102284 -4.73722,4.3423825 -6.16538,5.70722823 -1.42817,1.36484567 -1.82948,1.85444767 -2.0507,2.00248267 -0.22121,0.148035 -0.26232,-0.045382 -0.20672,-0.2592942 0.0556,-0.2139118 0.20792,-0.4484368 0.31187,-0.6727058 0.10396,-0.224269 0.15956,-0.43823451 0.21515,-0.652203 0.0556,-0.21396849 0.11119,-0.42793076 0.16678,-0.64189925 0.0556,-0.21396848 0.11119,-0.42792897 0.23564,-0.55543364 0.12444,-0.12750467 0.31785,-0.16861495 0.79839,-0.52342981 0.48054,-0.3548149 1.24811,-1.0233368 1.79449,-1.543774 0.54638,-0.5204373 0.87153,-0.892781 1.07224,-1.1376572 0.20071,-0.2448762 0.2768,-0.3620529 0.34266,-0.5276422 0.0659,-0.1655894 0.12145,-0.379555 0.16374,-0.8939498 0.0423,-0.5143947 0.0712,-1.3291478 0.17214,-1.8053781 0.1009,-0.4762304 0.27375,-0.614039 0.43635,-0.8002182 0.1626,-0.1861791 0.31491,-0.4207033 0.41887,-0.6449695 0.10396,-0.2242662 0.15955,-0.4382235 0.20788,-0.4485345 0.0483,-0.010311 0.0894,0.1830959 0.0822,0.3868152 -0.007,0.2037193 -0.0628,0.4176927 -0.10511,0.9320317 -0.0423,0.5143389 -0.0712,1.3290955 -0.0755,1.7848078 -0.004,0.4557124 0.0164,0.552422 0.11306,0.5319335 0.0967,-0.020488 0.26955,-0.1583026 1.28615,-1.0819095 1.01659,-0.9236068 2.8769,-2.6329868 3.84515,-3.5463269 0.96825,-0.91334 1.0444,-1.030601 1.02378,-1.127348 -0.0206,-0.09675 -0.13789,-0.172895 -1.11521,-0.01564 -0.97733,0.157256 -2.81475,0.54781 -4.79723,0.969195 -1.98248,0.4213846 -4.11002,0.8735999 -5.21181,1.1583287 -1.10179,0.2847289 -1.17794,0.4019965 -1.23658,0.3638693 -0.0586,-0.038127 -0.0998,-0.2315383 -0.25817,-0.5011197 -0.15842,-0.2695814 -0.43406,-0.6153026 -0.41653,-0.7705758 0.0175,-0.1552735 0.3281,-0.1202537 1.64396,-0.3493785 1.31587,-0.229125 3.63681,-0.72245 5.76435,-1.174669 2.12754,-0.452219 4.06167,-0.863328 5.27049,-1.120271 1.20883,-0.256942 1.69236,-0.359719 1.99275,-0.373084 0.30038,-0.01337 0.41764,0.06278 0.5452,0.187268 0.12755,0.124485 0.26538,0.297348 0.30654,0.490786 0.0412,0.193438 -0.0144,0.407409 -0.0422,0.514416 -0.0278,0.107008 -0.0279,0.107013 -1.08255,1.089259 z"
       id="path1611-6-1-6"
       inkscape:connector-curvature="0"
       inkscape:path-effect="#path-effect1621-5-9-2"
       inkscape:original-d="m 262.99219,-11.569669 c -2.10946,1.9643787 -4.21878,3.9288355 -6.32797,5.8933893 -2.45518,2.2400098 -4.91021,4.4801166 -7.36511,6.7202933 -0.40145,0.4895267 -0.80276,0.9791283 -1.20394,1.46882 -0.0412,-0.193508 -0.0823,-0.3869276 -0.12333,-0.5802417 0.15217,-0.234608 0.30447,-0.4691367 0.45691,-0.7035647 0.0555,-0.2140486 0.11106,-0.42802362 0.16679,-0.64189659 0.0555,-0.2140537 0.11105,-0.4280267 0.16678,-0.64191037 0.0555,-0.214043 0.11106,-0.42801267 0.16679,-0.64189667 0.19328,-0.0412 0.38669,-0.08231 0.58024,-0.123333 0.76744,-0.66861667 1.53501,-1.33714707 2.30273,-2.00556377 0.32502,-0.3724367 0.65018,-0.7447797 0.97548,-1.1170334 0.0762,-0.117413 0.15233,-0.234568 0.22845,-0.3517767 0.0556,-0.213968 0.1112,-0.4279327 0.16679,-0.6419017 0.0289,-0.8148247 0.0578,-1.6295801 0.0869,-2.4442495 0.17266,-0.137994 0.34558,-0.275719 0.51858,-0.413442 0.15216,-0.2346037 0.30448,-0.4691217 0.45692,-0.7035554 0.0555,-0.21404 0.11105,-0.428008 0.16678,-0.6418967 0.041,0.193324 0.0821,0.3867337 0.12334,0.5802317 -0.0557,0.2138887 -0.11132,0.4278567 -0.16679,0.6418907 -0.0291,0.8146744 -0.0581,1.6294298 -0.0869,2.4442695 0.0205,0.0966 0.041,0.193324 0.0617,0.2901137 0.17271,-0.1379287 0.34558,-0.2757187 0.51857,-0.4134567 1.86018,-1.7094801 3.7205,-3.4188489 5.58095,-5.1281593 0.076,-0.11736 0.15217,-0.234608 0.22845,-0.351783 -0.11739,-0.07624 -0.23466,-0.152379 -0.35179,-0.228444 -1.83754,0.390484 -3.67496,0.781036 -5.51225,1.171659 -2.12767,0.4521567 -4.25521,0.9043634 -6.38262,1.3566471 -0.0763,0.117168 -0.15244,0.234443 -0.22845,0.351797 -0.0412,-0.193504 -0.0823,-0.386917 -0.12333,-0.5802407 -0.27572,-0.345873 -0.55136,-0.6915967 -0.82691,-1.0371394 0.31058,0.035 0.62115,0.07001 0.93203,0.1050947 2.32083,-0.4933817 4.64177,-0.9867137 6.96285,-1.4799807 1.934,-0.411174 3.86813,-0.822271 5.80238,-1.233329 0.4834,-0.102834 0.96693,-0.205614 1.45059,-0.308329 0.11712,0.07609 0.23438,0.15223 0.35178,0.228455 0.13769,0.172759 0.27551,0.345627 0.41346,0.518567 -0.0557,0.213874 -0.11133,0.427837 -0.16679,0.641891 z"
       sodipodi:nodetypes="cccccccccccccccccccccccccccccccccccccc" />
  </g>
  <g
     transform="translate(-51.181583,82.578691)"
     style="display:inline"
     inkscape:groupmode="layer"
     id="g1605"
     inkscape:label="Face">
    <path
       style="fill:#e6fbff;fill-opacity:1;stroke:#000000;stroke-width:0.1375;stroke-linecap:butt;stroke-linejoin:miter;stroke-miterlimit:4;stroke-dasharray:none;stroke-opacity:1"
       d="m 178.60602,-5.9893089 c -1.75896,3.6121874 -5.27682,10.8364648 -9.02121,18.6338729 -3.74438,7.797408 -7.71527,16.167922 -10.18977,21.087593 -2.47451,4.919671 -3.45264,6.388551 -3.66698,7.098935 -0.21434,0.710383 0.33478,0.662342 0.85972,0.339756 0.52494,-0.322586 1.02602,-0.919746 1.53917,-1.379662 0.51314,-0.459917 1.03824,-0.782519 1.56334,-1.105118 0.52509,-0.3226 1.05019,-0.645202 1.57529,-0.967801 0.52509,-0.322599 1.05019,-0.645201 1.28867,-1.080868 0.23848,-0.435667 0.19044,-0.984784 0.74469,-2.555005 0.55424,-1.570222 1.71085,-4.161343 2.65296,-6.042076 0.94211,-1.880732 1.6697,-3.05102 2.15892,-3.785652 0.48923,-0.734631 0.73959,-1.033006 1.12736,-1.343532 0.38777,-0.310525 0.91287,-0.633126 2.24973,-1.165098 1.33687,-0.531972 3.4853,-1.273252 4.67264,-1.930356 1.18733,-0.657104 1.41385,-1.230238 1.77767,-1.81545 0.36383,-0.585212 0.8649,-1.182366 1.37805,-1.642282 0.51315,-0.459915 1.03824,-0.78251 1.02633,-0.919766 -0.0119,-0.137256 -0.56103,-0.08922 -1.09824,0.09608 -0.5372,0.185297 -1.0623,0.507897 -2.39901,1.039836 -1.33672,0.531939 -3.48514,1.273217 -4.69659,1.65589 -1.21145,0.382674 -1.48601,0.406694 -1.51021,0.132215 -0.0242,-0.274479 0.20231,-0.847615 1.83598,-4.310476 1.63366,-3.46286 4.67447,-9.8154195 6.32017,-13.14103778 1.64569,-3.32561822 1.89623,-3.62419942 2.17096,-3.64807812 0.27473,-0.023879 0.57331,0.2266591 0.95064,2.96024902 0.37733,2.73358988 0.83372,7.95020548 1.32615,13.57864788 0.49243,5.628442 1.02089,11.6687 1.15983,14.837964 0.13895,3.169264 -0.11159,3.467843 0.0379,3.593098 0.14945,0.125255 0.69857,0.07721 1.54635,0.279819 0.84779,0.202605 1.99407,0.655637 2.39371,0.482366 0.39964,-0.173272 0.0531,-0.972666 -0.40853,-4.667286 -0.46166,-3.694619 -1.03816,-10.283997 -1.56662,-16.32428 -0.52846,-6.0402832 -1.00887,-11.53145746 -1.30913,-14.9634418 -0.30026,-3.4319843 -0.42036,-4.804777 -0.62955,-5.6164591 -0.20919,-0.8116821 -0.50776,-1.0622156 -0.94359,-1.3008083 -0.43584,-0.2385928 -1.00898,-0.4651098 -1.55823,-0.4171818 -0.54926,0.04793 -1.07435,0.3705256 -1.33696,0.5318636 -0.26261,0.161338 -0.26261,0.16134 -2.02156,3.7735275 z"
       id="path1597"
       inkscape:connector-curvature="0"
       inkscape:path-effect="#path-effect1609"
       inkscape:original-d="m 180.36497,-9.6014964 c -3.51752,7.2245648 -7.03538,14.4488434 -10.55359,21.6728374 -3.97056,8.370815 -7.94146,16.741325 -11.91269,25.11157 -0.97779,1.469163 -1.95593,2.93804 -2.9344,4.406633 0.54945,-0.04782 1.09857,-0.09586 1.64736,-0.144125 0.50141,-0.596875 1.00249,-1.194033 1.50323,-1.791478 0.52543,-0.322317 1.05053,-0.644917 1.57529,-0.967802 0.52543,-0.322315 1.05053,-0.644918 1.57529,-0.9678 0.52543,-0.322315 1.05053,-0.644918 1.57529,-0.9678 -0.0477,-0.548835 -0.0957,-1.097955 -0.14413,-1.647355 1.15695,-2.590839 2.31356,-5.18196 3.46983,-7.77336 0.72793,-1.170008 1.45552,-2.340297 2.18278,-3.510875 0.25082,-0.298913 0.50118,-0.597292 0.75161,-0.895735 0.52509,-0.322635 1.05019,-0.645236 1.57529,-0.967795 2.14877,-0.740998 4.2972,-1.482276 6.44529,-2.22384 0.22685,-0.572851 0.45337,-1.145983 0.67955,-1.719402 0.50142,-0.596872 1.00249,-1.194031 1.50323,-1.79147 0.52544,-0.322316 1.05053,-0.644914 1.57529,-0.967795 -0.54879,0.04826 -1.0979,0.09631 -1.64735,0.144122 -0.52476,0.322884 -1.04986,0.645481 -1.57529,0.967797 -2.1481,0.741563 -4.29652,1.482846 -6.44529,2.22384 -0.27423,0.02425 -0.54879,0.04827 -0.82368,0.07206 0.22686,-0.572849 0.45337,-1.145988 0.67955,-1.719405 3.04115,-6.352271 6.08196,-12.7048307 9.12243,-19.057676 0.25087,-0.2982956 0.50141,-0.5968753 0.75161,-0.8957383 0.29892,0.250822 0.5975,0.5013597 0.89574,0.7516137 0.45667,5.2169048 0.91307,10.4335198 1.36918,15.6498456 0.52874,6.040559 1.0572,12.080817 1.58538,18.120787 -0.2502,0.298866 -0.50074,0.597445 -0.75162,0.895737 0.54945,-0.04782 1.09857,-0.09586 1.64735,-0.144123 1.14681,0.453119 2.29309,0.906155 3.43884,1.359094 -0.34641,-0.799423 -0.69292,-1.598818 -1.03987,-2.398954 -0.57622,-6.589082 -1.15272,-13.17846 -1.7295,-19.768144 -0.48013,-5.4908826 -0.96055,-10.98205627 -1.44124,-16.4735201 -0.11983,-1.3725045 -0.23993,-2.7452975 -0.36031,-4.1183816 -0.29825,-0.250254 -0.59682,-0.5007927 -0.89574,-0.7516147 -0.5728,-0.2262326 -1.14594,-0.4527506 -1.71942,-0.6795516 -0.52476,0.322885 -1.04985,0.6454846 -1.57529,0.9678016 z"
       sodipodi:nodetypes="cccccccccccccccccccccccccccccccccccccc" />
    <path
       style="fill:#e6fbff;fill-opacity:1;stroke:#000000;stroke-width:0.1375;stroke-linecap:butt;stroke-linejoin:round;stroke-miterlimit:4;stroke-dasharray:none;stroke-opacity:1"
       d="m 198.13652,54.284055 c -0.84718,-0.241085 -1.22598,-0.266465 -2.77185,-0.185695 -0.89778,0.0469 -1.62633,0.04935 -1.67841,0.0056 -0.063,-0.05291 -0.0802,-0.3787 -0.0545,-1.03271 0.0781,-1.989545 -0.25126,-6.298185 -1.8466,-24.154546 -1.02777,-11.503653 -1.61106,-17.70828 -1.68709,-17.945989 -0.33863,-1.0586777 -0.42171,-1.3746517 -0.37583,-1.4293307 0.0278,-0.03314 0.36493,0.0017 0.74914,0.07741 0.86957,0.171372 1.73397,0.09618 2.69944,-0.2348147 0.75064,-0.257346 1.17812,-0.32538 1.27005,-0.20213 0.0327,0.04391 -0.0237,0.4316707 -0.12532,0.8616934 -0.50837,2.150091 -0.48224,3.596881 0.24133,13.360288 0.61958,8.360455 2.23585,26.227447 2.48429,27.462527 0.32987,1.639975 0.65347,2.360945 1.31684,2.933885 0.59628,0.515 0.51466,0.693315 -0.22147,0.483825 z"
       id="path1599"
       inkscape:connector-curvature="0" />
    <path
       style="display:inline;fill:#e6fbff;fill-opacity:1;stroke:#000000;stroke-width:0.1375;stroke-linecap:butt;stroke-linejoin:miter;stroke-miterlimit:4;stroke-dasharray:none;stroke-opacity:1"
       d="m 220.12315,-6.1506395 c 2.02156,3.7735259 5.53942,10.9978034 9.28381,18.7952125 3.74438,7.797409 7.71528,16.167925 10.18978,21.087597 2.47451,4.919672 3.45264,6.38855 3.66697,7.098933 0.21434,0.710384 -0.33478,0.662342 -0.85972,0.339754 -0.52494,-0.322587 -1.02601,-0.919742 -1.53916,-1.379661 -0.51315,-0.459919 -1.03824,-0.782516 -1.56334,-1.105118 -0.5251,-0.322602 -1.0502,-0.645204 -1.57529,-0.967803 -0.5251,-0.322599 -1.0502,-0.645201 -1.28868,-1.080867 -0.23848,-0.435665 -0.19044,-0.984782 -0.74468,-2.555001 -0.55425,-1.570218 -1.71085,-4.161342 -2.65296,-6.042075 -0.94211,-1.880734 -1.6697,-3.051027 -2.15893,-3.785655 -0.48922,-0.734629 -0.73959,-1.033006 -1.12736,-1.343531 -0.38777,-0.310525 -0.91287,-0.633126 -2.24973,-1.165097 -1.33687,-0.531972 -3.48529,-1.273249 -4.67263,-1.930354 -1.18734,-0.657106 -1.41386,-1.23024 -1.77768,-1.815449 -0.36382,-0.58521 -0.8649,-1.18237 -1.37805,-1.642284 -0.51314,-0.459914 -1.03824,-0.782515 -1.02633,-0.919771 0.0119,-0.137257 0.56103,-0.08922 1.09824,0.09608 0.5372,0.185297 1.0623,0.507897 2.39902,1.039837 1.33671,0.53194 3.48514,1.273221 4.69659,1.655894 1.21144,0.382674 1.486,0.406694 1.5102,0.132217 0.0242,-0.274477 -0.20231,-0.847617 -1.83598,-4.310482 -1.63366,-3.462864 -4.67447,-9.8154217 -6.32016,-13.14104252 -1.6457,-3.32562078 -1.89624,-3.62420038 -2.17097,-3.64808068 -0.27472,-0.02388 -0.57331,0.2266624 -0.95064,2.96025232 -0.37733,2.73358988 -0.83372,7.95020458 -1.32615,13.57865288 -0.49243,5.628448 -1.02088,11.668703 -1.15983,14.837966 -0.13895,3.169263 0.1116,3.467848 -0.0379,3.593101 -0.14945,0.125253 -0.69857,0.07721 -1.54635,0.279816 -0.84778,0.202604 -1.99407,0.655641 -2.39371,0.48237 -0.39964,-0.173272 -0.0531,-0.972672 0.40853,-4.66729 0.46166,-3.694618 1.03816,-10.283995 1.56662,-16.324282 0.52846,-6.0402878 1.00888,-11.53146088 1.30914,-14.9634455 0.30026,-3.4319847 0.42036,-4.8047793 0.62954,-5.6164589 0.20919,-0.8116797 0.50777,-1.0622181 0.9436,-1.3008114 0.43584,-0.2385932 1.00897,-0.4651082 1.55822,-0.4171802 0.54926,0.04793 1.07436,0.3705296 3.09592,4.1440555 z"
       id="path1601"
       inkscape:connector-curvature="0"
       inkscape:path-effect="#path-effect1607"
       inkscape:original-d="m 218.6268,-9.6014934 c 3.51753,7.2245658 7.03539,14.4488444 10.55359,21.6728394 3.97056,8.370822 7.94146,16.741335 11.9127,25.11158 0.97779,1.46916 1.95592,2.938038 2.93439,4.40663 -0.54945,-0.04782 -1.09857,-0.09586 -1.64735,-0.144125 -0.50142,-0.596875 -1.00249,-1.194032 -1.50323,-1.791477 -0.52544,-0.322318 -1.05053,-0.644918 -1.57529,-0.967803 -0.52544,-0.322315 -1.05054,-0.644917 -1.57529,-0.9678 -0.52544,-0.322315 -1.05054,-0.644917 -1.57529,-0.9678 0.0478,-0.548827 0.0958,-1.097947 0.14412,-1.647355 -1.15694,-2.590836 -2.31355,-5.181959 -3.46982,-7.773359 -0.72793,-1.170009 -1.45553,-2.340298 -2.18278,-3.510876 -0.25082,-0.298913 -0.50119,-0.597291 -0.75162,-0.895735 -0.52509,-0.322635 -1.05019,-0.645238 -1.57529,-0.967794 -2.14877,-0.740998 -4.29719,-1.482276 -6.44529,-2.22384 -0.22685,-0.572851 -0.45337,-1.145983 -0.67955,-1.719403 -0.50141,-0.596871 -1.00249,-1.194031 -1.50323,-1.791469 -0.52543,-0.322319 -1.05053,-0.644917 -1.57529,-0.9678 0.54879,0.04826 1.0979,0.0963 1.64735,0.144122 0.52476,0.322886 1.04986,0.645483 1.5753,0.967802 2.14809,0.741563 4.29652,1.482846 6.44529,2.22384 0.27422,0.02425 0.54878,0.04827 0.82367,0.07206 -0.22685,-0.572848 -0.45337,-1.145988 -0.67955,-1.719405 -3.04115,-6.352279 -6.08195,-12.7048387 -9.12242,-19.057684 -0.25088,-0.2982956 -0.50142,-0.5968753 -0.75162,-0.8957383 -0.29891,0.250822 -0.5975,0.5013597 -0.89574,0.7516137 -0.45667,5.2169048 -0.91306,10.4335198 -1.36918,15.6498456 -0.52874,6.04057 -1.05719,12.080825 -1.58537,18.120796 0.25019,0.298866 0.50074,0.597444 0.75161,0.895737 -0.54945,-0.04782 -1.09857,-0.09586 -1.64735,-0.144124 -1.1468,0.45312 -2.29309,0.906155 -3.43883,1.359095 0.3464,-0.799423 0.69292,-1.598819 1.03986,-2.398954 0.57622,-6.589083 1.15272,-13.17846 1.7295,-19.768152 0.48014,-5.4908826 0.96055,-10.98205627 1.44125,-16.4735211 0.11982,-1.3725045 0.23993,-2.7452985 0.36031,-4.1183826 0.29824,-0.250254 0.59682,-0.5007927 0.89574,-0.7516147 0.5728,-0.2262326 1.14593,-0.4527506 1.71941,-0.6795516 0.52476,0.322884 1.04986,0.6454846 1.57529,0.9678026 z"
       sodipodi:nodetypes="cccccccccccccccccccccccccccccccccccccc" />
    <path
       style="display:inline;fill:#e6fbff;fill-opacity:1;stroke:#000000;stroke-width:0.1375;stroke-linecap:butt;stroke-linejoin:round;stroke-miterlimit:4;stroke-dasharray:none;stroke-opacity:1"
       d="m 200.85525,54.28407 c 0.84718,-0.24109 1.22599,-0.266465 2.77185,-0.1857 0.89779,0.0469 1.62633,0.04935 1.67842,0.0056 0.063,-0.05291 0.0802,-0.3787 0.0545,-1.032705 -0.0781,-1.98955 0.25125,-6.298185 1.84659,-24.154556 1.02777,-11.503654 1.61106,-17.708282 1.68709,-17.945991 0.33863,-1.0586777 0.42171,-1.3746517 0.37583,-1.4293317 -0.0278,-0.03315 -0.36492,0.0017 -0.74914,0.07741 -0.86957,0.171372 -1.73397,0.09618 -2.69943,-0.2348147 -0.75064,-0.257346 -1.17813,-0.325381 -1.27005,-0.20213 -0.0327,0.04391 0.0237,0.4316707 0.12531,0.8616934 0.50837,2.150092 0.48224,3.596883 -0.24132,13.36029 -0.61959,8.360456 -2.23586,26.227452 -2.48429,27.462537 -0.32988,1.63997 -0.65348,2.360945 -1.31685,2.93388 -0.59628,0.515005 -0.51466,0.693315 0.22147,0.483825 z"
       id="path1603"
       inkscape:connector-curvature="0" />
  </g>
</svg>
