<?xml version="1.0" encoding="UTF-8" standalone="no"?>
<!-- Created with Inkscape (http://www.inkscape.org/) -->

<svg
   xmlns:dc="http://purl.org/dc/elements/1.1/"
   xmlns:cc="http://creativecommons.org/ns#"
   xmlns:rdf="http://www.w3.org/1999/02/22-rdf-syntax-ns#"
   xmlns:svg="http://www.w3.org/2000/svg"
   xmlns="http://www.w3.org/2000/svg"
   xmlns:sodipodi="http://sodipodi.sourceforge.net/DTD/sodipodi-0.dtd"
   xmlns:inkscape="http://www.inkscape.org/namespaces/inkscape"
   width="200mm"
   height="200mm"
   viewBox="0 0 200 200"
   version="1.1"
   id="svg3782"
   inkscape:version="0.92.3 (2405546, 2018-03-11)"
   sodipodi:docname="favicon.svg"
   inkscape:export-filename="/prj/ai/docs/images/favicon.svg.png"
   inkscape:export-xdpi="4.1107554"
   inkscape:export-ydpi="4.1107554">
  <defs
     id="defs3776">
    <inkscape:path-effect
       only_selected="false"
       apply_with_weight="true"
       apply_no_weight="true"
       helper_size="0"
       steps="2"
       weight="33.333333"
       is_visible="true"
       id="path-effect4787"
       effect="bspline" />
    <inkscape:path-effect
       only_selected="false"
       apply_with_weight="true"
       apply_no_weight="true"
       helper_size="0"
       steps="2"
       weight="33.333333"
       is_visible="true"
       id="path-effect4785"
       effect="bspline" />
    <inkscape:path-effect
       effect="bspline"
       id="path-effect4761"
       is_visible="true"
       weight="33.333333"
       steps="2"
       helper_size="0"
       apply_no_weight="true"
       apply_with_weight="true"
       only_selected="false" />
    <inkscape:path-effect
       effect="bspline"
       id="path-effect4757"
       is_visible="true"
       weight="33.333333"
       steps="2"
       helper_size="0"
       apply_no_weight="true"
       apply_with_weight="true"
       only_selected="false" />
    <inkscape:path-effect
       effect="bspline"
       id="path-effect4755"
       is_visible="true"
       weight="33.333333"
       steps="2"
       helper_size="0"
       apply_no_weight="true"
       apply_with_weight="true"
       only_selected="false" />
    <inkscape:path-effect
       effect="bspline"
       id="path-effect4753"
       is_visible="true"
       weight="33.333333"
       steps="2"
       helper_size="0"
       apply_no_weight="true"
       apply_with_weight="true"
       only_selected="false" />
    <inkscape:path-effect
       effect="spiro"
       id="path-effect4749"
       is_visible="true" />
  </defs>
  <sodipodi:namedview
     id="base"
     pagecolor="#ffffff"
     bordercolor="#666666"
     borderopacity="1.0"
     inkscape:pageopacity="0.0"
     inkscape:pageshadow="2"
     inkscape:zoom="1"
     inkscape:cx="161.87667"
     inkscape:cy="358.18182"
     inkscape:document-units="mm"
     inkscape:current-layer="layer3"
     showgrid="true"
     inkscape:window-width="1869"
     inkscape:window-height="1025"
     inkscape:window-x="51"
     inkscape:window-y="27"
     inkscape:window-maximized="1"
     inkscape:snap-to-guides="false"
     inkscape:snap-grids="true"
     inkscape:object-nodes="true"
     inkscape:object-paths="false">
    <inkscape:grid
       type="xygrid"
       id="grid3784" />
  </sodipodi:namedview>
  <metadata
     id="metadata3779">
    <rdf:RDF>
      <cc:Work
         rdf:about="">
        <dc:format>image/svg+xml</dc:format>
        <dc:type
           rdf:resource="http://purl.org/dc/dcmitype/StillImage" />
        <dc:title />
      </cc:Work>
    </rdf:RDF>
  </metadata>
  <g
     inkscape:groupmode="layer"
     id="layer3"
     inkscape:label="Glow"
     style="display:inline">
    <ellipse
       style="fill:#f7ffa5;fill-opacity:1;stroke:none;stroke-width:0.56285906;stroke-linecap:butt;stroke-linejoin:round;stroke-miterlimit:4;stroke-dasharray:none;stroke-opacity:1"
       id="path2406"
       cx="99.880203"
       cy="99.855194"
       rx="99.086456"
       ry="98.557297" />
  </g>
  <g
     inkscape:label="AI"
     id="g4771"
     inkscape:groupmode="layer"
     style="display:inline">
    <path
       sodipodi:nodetypes="cccccccccccccccccccccccccccccccccccccc"
       inkscape:original-d="M 127.23923,4.0261196 C 110.70402,31.588133 94.167567,59.148897 77.62985,86.708411 58.889781,118.68015 40.148461,150.65063 21.405892,182.61987 c -4.408472,5.5134 -8.818193,11.02555 -13.2291663,16.53645 2.2061113,0.001 4.4109713,0.001 6.6145833,0 2.206111,-2.20361 4.410972,-4.40846 6.614583,-6.61458 2.206112,-1.10118 4.410972,-2.20361 6.614583,-3.3073 2.206111,-1.10117 4.410972,-2.20361 6.614584,-3.30728 2.206111,-1.10118 4.410972,-2.20362 6.614583,-3.30729 0.0013,-2.20361 0.0013,-4.40848 0,-6.61459 5.513403,-9.92062 11.025555,-19.8425 16.536458,-29.76562 3.308541,-4.40848 6.615834,-8.81819 9.921875,-13.22917 1.10368,-1.10367 2.205357,-2.20536 3.307292,-3.3073 2.204862,-1.10258 4.409722,-2.20502 6.614583,-3.30728 8.820696,-2.20362 17.640137,-4.40848 26.45834,-6.61459 1.10368,-2.20361 2.20611,-4.40846 3.30729,-6.61457 2.20611,-2.20361 4.41097,-4.40848 6.61459,-6.61459 2.20611,-1.10118 4.41096,-2.20361 6.61457,-3.30729 -2.20361,10e-4 -4.40846,10e-4 -6.61457,0 -2.20362,1.10368 -4.40848,2.20611 -6.61459,3.30729 -8.818203,2.20611 -17.637644,4.41098 -26.458339,6.61459 -1.10118,0.001 -2.203611,0.001 -3.307291,0 1.10368,-2.20361 2.206111,-4.40848 3.307291,-6.61459 14.332846,-24.252222 28.664449,-48.505693 42.994799,-72.760416 1.10368,-1.10118 2.20611,-2.203611 3.30729,-3.307291 1.10367,1.10368 2.20611,2.206111 3.30729,3.307291 0.001,20.94743 0.001,41.893612 0,62.838542 0.001,24.254724 0.001,48.508184 0,72.760404 -1.10118,1.10369 -2.20362,2.20612 -3.30729,3.3073 2.20611,0.001 4.41096,0.001 6.61457,0 4.41179,2.2054 8.82153,4.41027 13.22918,6.61458 -1.10166,-3.30631 -2.20375,-6.61254 -3.3073,-9.92188 0.001,-26.45707 0.001,-52.91541 0,-79.374987 0.001,-22.047361 0.001,-44.095972 0,-66.145834 0.001,-5.510902 0.001,-11.023055 0,-16.5364582 -1.10118,-1.1011802 -2.20361,-2.2036112 -3.30729,-3.3072912 -2.20361,-1.101181 -4.40847,-2.203612 -6.61459,-3.30729207 -2.20361,1.10368007 -4.40846,2.20611107 -6.61457,3.30729207 z"
       inkscape:path-effect="#path-effect4785"
       inkscape:connector-curvature="0"
       id="path4765"
       d="M 120.07357,17.255344 C 110.70255,31.587251 94.166091,59.148012 76.527198,88.913648 58.888304,118.67928 40.146987,150.64977 28.571518,169.39097 c -11.57547,18.7412 -15.985192,24.25335 -17.086936,27.00935 -1.101745,2.756 1.103115,2.756 3.307352,1.65357 2.204236,-1.10243 4.409092,-3.30729 6.614205,-4.96106 2.205113,-1.65377 4.409972,-2.75621 6.614833,-3.85864 2.204861,-1.10243 4.409728,-2.20485 6.614588,-3.30728 2.20486,-1.10243 4.409725,-2.20486 5.511904,-3.85776 1.102178,-1.65289 1.102178,-3.85776 3.858136,-9.92154 2.755957,-6.06378 8.268113,-15.98565 12.677879,-23.15157 4.409766,-7.16591 7.717051,-11.57562 9.922611,-14.33242 2.205559,-2.75681 3.307241,-3.85849 4.96067,-4.96069 1.65343,-1.1022 3.858296,-2.20463 9.370858,-3.85837 5.512562,-1.65373 14.332003,-3.8586 19.292382,-6.0631 4.96037,-2.2045 6.0628,-4.40935 7.71657,-6.61446 1.65377,-2.20511 3.85864,-4.40998 6.06375,-6.06375 2.20511,-1.65377 4.40996,-2.7562 4.41034,-3.30729 3.7e-4,-0.55109 -2.20448,-0.55109 -4.40972,0 -2.20524,0.55109 -4.4101,1.65352 -9.92206,3.30718 -5.511969,1.65366 -14.331412,3.85853 -19.292166,4.96107 -4.960753,1.10254 -6.063184,1.10254 -6.063935,3.6e-4 -7.5e-4,-1.10218 1.101683,-3.30705 8.81871,-16.536275 7.717027,-13.229226 22.048631,-37.482699 29.765751,-50.16084 7.71713,-12.678141 8.81956,-13.780572 9.92261,-13.779949 1.10305,6.22e-4 2.20549,1.103058 2.75608,12.127363 0.55059,11.024305 0.55059,31.970487 0.55059,54.570314 0,22.599827 0,46.853287 -0.55122,59.530617 -0.55121,12.67733 -1.65365,13.77976 -1.1018,14.33098 0.55184,0.55121 2.75669,0.55121 6.06429,1.65411 3.3076,1.10289 7.71734,3.30776 9.37024,2.75663 1.65289,-0.55113 0.55081,-3.85736 -7.7e-4,-18.74063 -0.55158,-14.88327 -0.55158,-41.34161 -0.55158,-65.595079 0,-24.253469 0,-46.30208 0,-60.082462 0,-13.780382 0,-19.292535 -0.55059,-22.5998267 C 142.6745,6.2322305 141.57207,5.1297998 139.91855,4.02712 138.26503,2.9244402 136.06017,1.8220108 133.8548,1.8215101 131.64944,1.8210094 129.44459,2.9234375 120.07357,17.255344 Z"
       style="fill:#00bbde;fill-opacity:1;stroke:#000000;stroke-width:0.55000001;stroke-linecap:butt;stroke-linejoin:miter;stroke-miterlimit:4;stroke-dasharray:none;stroke-opacity:1" />
    <path
       inkscape:connector-curvature="0"
       id="path4769"
       d="m 182.56258,187.3 c -3.29177,-1.25603 -4.79239,-1.48922 -10.98047,-1.7063 -3.59383,-0.12607 -6.49776,-0.37039 -6.69007,-0.56285 -0.23262,-0.2328 -0.18758,-1.537 0.14278,-4.13412 1.00497,-7.90066 1.19451,-25.18446 1.06257,-96.894289 -0.085,-46.197814 -0.24622,-71.125232 -0.46632,-72.098956 -0.98027,-4.3366502 -1.20117,-5.6246994 -0.99928,-5.8265894 0.12238,-0.122379 1.45355,0.133949 2.95816,0.5696185 3.40531,0.9860313 6.87596,0.987762 10.83851,0.0054 3.08086,-0.7637765 4.808,-0.8858495 5.13134,-0.3626775 0.11519,0.186385 -0.2447,1.7118733 -0.79977,3.3899742 -2.7753,8.3904072 -3.17555,14.1646572 -3.69607,53.3219242 -0.44573,33.530566 -0.2341,105.290035 0.32528,110.298175 0.74275,6.64993 1.78088,9.63566 4.22451,12.14996 2.19651,2.26005 1.80911,2.94213 -1.05117,1.85073 z"
       style="fill:#00bbde;fill-opacity:1;stroke:#000000;stroke-width:0.55000001;stroke-linecap:butt;stroke-linejoin:round;stroke-miterlimit:4;stroke-dasharray:none;stroke-opacity:1" />
  </g>
</svg>
